<?xml version="1.0" standalone="no"?>
<!DOCTYPE svg PUBLIC "-//W3C//DTD SVG 1.1//EN" "http://www.w3.org/Graphics/SVG/1.1/DTD/svg11.dtd" >
<svg xmlns="http://www.w3.org/2000/svg">
<metadata></metadata>
<defs>
<font id="disposelight_oblique" horiz-adv-x="1009" >
<font-face units-per-em="2048" ascent="1434" descent="-614" />
<missing-glyph horiz-adv-x="524" />
<glyph horiz-adv-x="2048" />
<glyph horiz-adv-x="2048" />
<glyph unicode="&#xd;" horiz-adv-x="2048" />
<glyph unicode=" "  horiz-adv-x="524" />
<glyph unicode="&#x09;" horiz-adv-x="524" />
<glyph unicode="&#xa0;" horiz-adv-x="524" />
<glyph unicode="!" horiz-adv-x="352" d="M80 31l26 135q3 12 14 21.5t23 9.5h138q8 0 13.5 -7.5t7.5 -15.5l1 -8l-27 -135q-2 -12 -12 -21.5t-22 -9.5h-138q-13 0 -19.5 9t-4.5 22zM190 377l185 950q3 12 14 21.5t23 9.5h43q12 0 19.5 -9.5t4.5 -21.5l-184 -950q-1 -12 -13 -21.5t-24 -9.5h-43q-12 0 -19.5 9.5 t-5.5 21.5z" />
<glyph unicode="&#x22;" horiz-adv-x="444" d="M254 926l78 401q3 12 14 21.5t23 9.5h43q12 0 19.5 -9.5t4.5 -21.5l-78 -401q-1 -12 -12.5 -21.5t-23.5 -9.5h-43q-12 0 -19.5 9.5t-5.5 21.5zM438 926l78 401q3 12 14 21.5t23 9.5h43q12 0 20 -9.5t5 -21.5l-78 -401q-1 -12 -13 -21.5t-24 -9.5h-43q-12 0 -19.5 9.5 t-5.5 21.5z" />
<glyph unicode="#" horiz-adv-x="794" d="M199 641l8 43q3 12 14.5 21.5t24.5 9.5h104l49 252h-104q-13 0 -21 9t-6 23l8 41q3 13 14 22t25 9h105l49 256q3 13 15 23t24 10h43q12 0 18.5 -10t3.5 -23l-49 -256h148l49 256q3 13 15 23t24 10h43q12 0 18.5 -9.5t3.5 -23.5l-49 -256h109q13 0 21 -9.5t5 -21.5l-8 -43 q-1 -12 -13 -21t-26 -9h-108l-49 -252h108q14 0 22 -10t5 -23l-8 -43q-1 -12 -13 -21.5t-26 -9.5h-109l-47 -241q-1 -12 -13 -21.5t-26 -9.5h-41q-12 0 -19 9.5t-5 21.5l47 241h-148l-47 -241q-1 -12 -13 -21.5t-26 -9.5h-41q-13 0 -19.5 9t-4.5 22l47 241h-105 q-13 0 -20.5 9.5t-5.5 23.5zM455 715h147l49 252h-147z" />
<glyph unicode="$" horiz-adv-x="964" d="M152 453q3 12 13.5 21t22.5 9h43q12 0 20 -9t5 -21q-17 -90 49 -140.5t207 -50.5q329 0 369 197q6 30 0 53.5t-28 40.5t-43 28.5t-63 21.5t-69.5 15t-79.5 13q-165 28 -228 56q-137 60 -113 198q0 3 1 6q23 118 115.5 192t263.5 88l29 156q3 12 13.5 21.5t22.5 9.5h43 q12 0 20 -9.5t5 -21.5l-29 -156q157 -10 223.5 -85t41.5 -201q-1 -13 -13 -23t-24 -10h-41q-13 0 -20 9t-5 22q19 99 -45.5 143.5t-187.5 44.5q-273 0 -310 -180q-5 -25 1.5 -45t27 -35t41.5 -26t59.5 -20.5t65.5 -15t74 -14.5q170 -32 237 -62q144 -68 117 -214 q-12 -60 -39 -107.5t-76.5 -88.5t-131 -67t-191.5 -34l-27 -131q-2 -12 -13 -21.5t-24 -9.5h-41q-13 0 -20.5 9.5t-5.5 21.5l26 131q-178 20 -245 93t-43 198z" />
<glyph unicode="%" horiz-adv-x="985" d="M162 31l8 39q11 56 33.5 106t39.5 72l17 22l799 1008h-346q19 -9 23 -63.5t-7 -112.5q-28 -147 -85 -202.5t-183 -55.5q-122 0 -159.5 59.5t-10.5 198.5q27 141 84 198.5t184 57.5h588q13 0 21.5 -9.5t5.5 -21.5l-9 -33q0 -12 -14 -22l-786 -989q-10 -13 -26 -34.5 t-46 -78.5t-39 -102l-8 -37q-2 -12 -10.5 -21.5t-20.5 -9.5h-25q-13 0 -21.5 9.5t-6.5 21.5zM371 1102q-20 -106 1 -142t103 -36q84 0 120 36.5t56 141.5q20 106 -3 142t-109 36q-77 0 -112.5 -38t-55.5 -140zM520 246q27 141 84 198.5t184 57.5q128 0 163 -56t7 -200 q-29 -148 -86.5 -203t-183.5 -55q-122 0 -158.5 59.5t-9.5 198.5zM600 246q-22 -105 0.5 -141.5t104.5 -36.5q83 0 118.5 36t57.5 142q20 104 -2 141t-105 37t-118.5 -36.5t-55.5 -141.5z" />
<glyph unicode="&#x26;" horiz-adv-x="1173" d="M125 203q-12 65 6 139q29 149 106 237t220 162q-18 76 -24 101.5t-12.5 69.5t-4 76t11.5 75q26 134 126 221.5t259 87.5q78 0 132.5 -23.5t80.5 -65t34 -96.5t-7 -118q-8 -39 -28.5 -76.5t-43.5 -65.5t-62 -57.5t-66.5 -48t-76 -43t-72 -34.5t-72 -30.5t-59.5 -25.5 q85 -268 279 -473q102 95 166 200t84 199q1 12 13 21.5t24 9.5h41q13 0 19.5 -9t4.5 -22q-21 -108 -92.5 -228.5t-189.5 -233.5q40 -36 79 -51.5t95 -16.5h45q13 0 20.5 -9.5t5.5 -21.5l-8 -37q-2 -12 -13 -21t-24 -9h-45q-75 0 -129 24.5t-114 79.5q-77 -49 -174.5 -76.5 t-182.5 -27.5q-113 0 -190.5 28t-113.5 76t-48 113zM229 240q9 -47 36.5 -81t86.5 -53.5t146 -19.5q53 0 127.5 16t144.5 52q-210 231 -285 499q-116 -60 -173.5 -133t-78.5 -178q-13 -55 -4 -102zM512.5 989.5q-1.5 -33.5 3.5 -70.5t10 -59.5t16 -67.5q2 -6 3 -10.5t2 -9.5 q58 23 98 40.5t101 49t100 60.5t71.5 68t40.5 79q4 29 5.5 57.5t-8 54.5t-27.5 46.5t-52.5 32.5t-82.5 12q-116 0 -183.5 -56t-87.5 -155q-8 -38 -9.5 -71.5z" />
<glyph unicode="'" horiz-adv-x="260" d="M254 926l78 401q3 12 14 21.5t23 9.5h43q12 0 19.5 -9.5t4.5 -21.5l-78 -401q-1 -12 -12.5 -21.5t-23.5 -9.5h-43q-12 0 -19.5 9.5t-5.5 21.5z" />
<glyph unicode="(" horiz-adv-x="473" d="M195 682q80 408 458 743q26 22 43 5l19 -19q19 -19 -6 -47q-146 -130 -250.5 -306.5t-143.5 -373.5q-35 -206 -0.5 -379.5t129.5 -304.5q12 -28 -12 -45l-26 -18q-24 -17 -41 4q-248 333 -170 741z" />
<glyph unicode=")" horiz-adv-x="473" d="M16 -49q-18 16 7 45q146 132 250 309.5t143 374.5q37 207 2.5 378.5t-129.5 301.5q-16 27 10 47l27 18q24 17 41 -4q248 -333 170 -743q-77 -402 -459 -741q-23 -23 -43 -5z" />
<glyph unicode="*" horiz-adv-x="999" d="M209 680q-4 10 2 22.5t18 18.5l359 172l-291 172q-11 6 -11.5 19t9.5 24l33 43q7 12 21.5 15t23.5 -3l270 -198l62 381q3 12 13.5 21t22.5 9h52q12 0 19.5 -9t4.5 -21l-86 -379l348 196q12 6 24 2.5t17 -14.5l17 -43q4 -10 -2 -23.5t-17 -19.5l-360 -174l293 -170 q20 -14 2 -43l-33 -43q-9 -11 -22.5 -14t-22.5 4l-273 196l-61 -379q-2 -12 -13 -21t-24 -9h-49q-12 0 -20 9t-7 21l86 379l-346 -196q-14 -7 -26 -3.5t-15 15.5z" />
<glyph unicode="+" horiz-adv-x="792" d="M180 541l8 41q1 13 13 22.5t24 9.5h240l45 238q3 13 13.5 22t23.5 9h41q13 0 20 -9.5t4 -21.5l-45 -238h240q12 0 19 -9t5 -21l-8 -43q-3 -12 -14 -21.5t-23 -9.5h-239l-47 -238q-1 -13 -12 -22.5t-25 -9.5h-41q-13 0 -20 9t-5 23l47 238h-239q-12 0 -20 9.5t-5 21.5z " />
<glyph unicode="," horiz-adv-x="407" d="M42 -197.5q1 12.5 11 21.5q65 56 90.5 95.5t34.5 80.5h-74q-8 0 -16.5 10t-7.5 21l26 135q3 12 14 21.5t23 9.5h133q14 0 22 -10t5 -21l-27 -135q-30 -166 -165 -267q-11 -9 -24 -11t-21 7l-17 21q-8 9 -7 21.5z" />
<glyph unicode="-" horiz-adv-x="724" d="M176 541l8 41q1 13 13 22.5t24 9.5h520q12 0 19.5 -9t5.5 -21l-8 -43q-3 -12 -14 -21.5t-23 -9.5h-520q-12 0 -20 9.5t-5 21.5z" />
<glyph unicode="." horiz-adv-x="348" d="M80 31l26 135q3 12 14 21.5t23 9.5h138q8 0 13.5 -7.5t7.5 -15.5l1 -8l-27 -135q-2 -12 -12 -21.5t-22 -9.5h-138q-13 0 -19.5 9t-4.5 22z" />
<glyph unicode="/" horiz-adv-x="1044" d="M25.5 -9q-0.5 13 7.5 23l1159 1387q9 10 22.5 13t22.5 -3l31 -25q9 -6 9 -19t-9 -24l-1157 -1384q-9 -12 -22.5 -15t-22.5 5l-31 22q-9 7 -9.5 20z" />
<glyph unicode="0" horiz-adv-x="1046" d="M144 322.5q1 43.5 9 106t17.5 120t24.5 135.5q22 112 41 189t45 155t56 127.5t72 94t95 68.5t122 38t156 14q209 0 293 -64t83.5 -216.5t-54.5 -405.5q-20 -105 -37 -179t-39.5 -148t-46 -122t-56.5 -93.5t-71.5 -72t-89.5 -47t-112.5 -28.5t-139.5 -8q-62 0 -112.5 6.5 t-89 21t-68 33t-48.5 48.5t-31 61t-16 77t-3 89.5zM250 365.5q-6 -69.5 0.5 -108t23.5 -79.5t50 -61t83.5 -32.5t120.5 -12.5q50 0 92.5 5t77.5 17.5t63.5 26.5t53 39.5t43 49.5t35 64t29 74t25.5 88t23 99.5t23 113.5h-700q-19 -97 -28 -155.5t-15 -128zM309 727h701 q17 87 25.5 139t15.5 114.5t4 97.5t-13 74.5t-31.5 59.5t-55 38.5t-80.5 25t-111 6.5q-82 0 -143 -13t-106 -48t-74.5 -73t-54.5 -110.5t-40 -136.5t-37 -174z" />
<glyph unicode="1" horiz-adv-x="483" d="M272 1288l7 37q3 12 14 21.5t24 9.5q177 0 248 -94t35 -275l-186 -956q-2 -12 -13 -21.5t-24 -9.5h-43q-12 0 -19.5 9.5t-5.5 21.5l187 956q54 270 -179 270h-18q-13 0 -21.5 9.5t-5.5 21.5z" />
<glyph unicode="2" horiz-adv-x="999" d="M106 162l5 24q11 54 41 105t67.5 90.5t96.5 83t108.5 74t122.5 71.5q18 10 64 35t72.5 39.5t71 41.5t72.5 47t62.5 49t56 55t39 58t23.5 64q27 130 -33.5 203.5t-198.5 73.5q-297 0 -334 -189q-3 -14 -13 -23t-23 -9h-41q-14 0 -22 9.5t-5 22.5q57 289 457 289 q98 0 169 -30t106 -81.5t47.5 -120t-5.5 -145.5q-13 -66 -50.5 -124.5t-100.5 -111t-125.5 -92.5t-153.5 -91q-8 -5 -54 -29.5t-64 -35t-63 -36t-67.5 -42t-60 -43.5t-58.5 -49t-45 -50t-37.5 -56t-19.5 -57l-4 -16q-5 -28 15 -44t46 -20l670 2q13 0 20.5 -8.5t4.5 -21.5 l-7 -41q-3 -14 -13.5 -23.5t-22.5 -9.5h-670q-75 0 -116.5 48t-29.5 114z" />
<glyph unicode="3" horiz-adv-x="985" d="M98.5 179.5q-1.5 44.5 7.5 96.5q1 13 13 23t24 10h41q13 0 21 -9.5t6 -23.5q-18 -92 49 -143t232 -51q96 0 168.5 26t117.5 75t71.5 106.5t41.5 132.5q14 74 -0.5 125.5t-56 80t-96.5 40.5t-130 12h-125q-14 0 -21.5 10t-4.5 23l8 41q7 26 39 26h125q147 0 232 72.5 t106 179.5q23 115 -40.5 181.5t-201.5 66.5q-295 0 -332 -190q-3 -13 -15 -22t-24 -9h-43q-12 0 -19.5 9.5t-4.5 21.5q26 134 138 210t320 76q190 0 276 -88t52 -256q-8 -44 -25.5 -86t-50.5 -86.5t-90 -77.5t-131 -45q74 -4 124.5 -31t73.5 -69t30 -97.5t-7 -117.5 q-21 -104 -57.5 -181t-97.5 -136t-153.5 -89t-215.5 -30q-98 0 -169.5 13.5t-114 39t-66 61t-25 80z" />
<glyph unicode="4" d="M172 496l8 47q16 77 58.5 149t77.5 106l34 33l574 533q11 9 24 10t21 -6l28 -27q17 -20 -4 -45l-575 -532q-12 -12 -31 -33t-55.5 -80t-46.5 -112l-6 -33q-6 -26 9 -43.5t40 -20.5h575l68 338q1 13 13 23t24 10h43q12 0 19 -9.5t5 -23.5l-147 -751q-1 -12 -14 -21.5 t-25 -9.5h-41q-13 0 -20 9.5t-5 23.5l62 311h-580q-68 0 -107 44.5t-26 109.5z" />
<glyph unicode="5" horiz-adv-x="978" d="M98 182.5q-2 44.5 6 96.5q1 12 13 21t24 9h43q12 0 19.5 -9t5.5 -21q-18 -93 51 -143t234 -50q97 0 169 25.5t117.5 75.5t72 110.5t42.5 142.5q16 73 12 129.5t-31.5 95t-90 58.5t-162.5 20h-338q-31 0 -23 33l197 551q14 31 39 31h589q13 0 21.5 -9.5t5.5 -21.5l-8 -43 q-1 -12 -12 -19.5t-25 -7.5h-528l-150 -413h281q115 0 191 -30.5t108.5 -84.5t40 -128t-12.5 -161q-20 -105 -57.5 -185t-99 -142t-154.5 -94.5t-215 -32.5q-98 0 -169.5 14t-114 39.5t-66 62t-25.5 81z" />
<glyph unicode="6" horiz-adv-x="1015" d="M150.5 335.5q1.5 55.5 13.5 117.5l78 399q18 91 43.5 165t66.5 142.5t95 115t130.5 74t170.5 27.5q225 0 311.5 -81.5t56.5 -239.5q-8 -31 -35 -31h-43q-13 0 -21 9.5t-5 21.5q22 111 -50 166t-233 55q-76 0 -139 -31t-103 -76t-71.5 -106.5t-46.5 -111t-25 -101.5 l-29 -148q6 7 16.5 18.5t47.5 41t77 52.5t102.5 41.5t127.5 18.5q76 0 138 -17.5t102 -48t69 -71.5t39.5 -88t13 -97.5t-9.5 -100.5q-88 -465 -528 -465q-83 0 -147 18t-104 50.5t-66 75.5t-35 96.5t-7.5 109zM270 455q-32 -159 34.5 -265t223.5 -106q78 0 142.5 21t108 55 t76.5 82.5t51.5 99t29.5 109.5q29 148 -46 235.5t-224 87.5q-93 0 -174.5 -35.5t-142 -109t-79.5 -174.5z" />
<glyph unicode="7" horiz-adv-x="968" d="M233 31l48 235q30 157 172 287l442 414q67 62 95.5 121t51.5 169h-725q-12 0 -19.5 7.5t-6.5 19.5l8 43q3 12 14 21.5t23 9.5h797q13 0 20 -9.5t4 -21.5l-29 -151q-12 -66 -59.5 -144t-107.5 -133l-443 -412q-46 -43 -84.5 -106.5t-50.5 -118.5l-45 -231 q-2 -12 -13 -21.5t-24 -9.5h-43q-13 0 -20 9t-5 22z" />
<glyph unicode="8" horiz-adv-x="989" d="M120 229q-1 53 9 113q24 118 123 207.5t270 165.5q-126 82 -178 154.5t-33 172.5q13 65 47 123.5t88 106.5t136 76t180 28q200 0 277.5 -89.5t47.5 -237.5q-10 -50 -37 -92t-79 -83t-103.5 -73t-140.5 -80q74 -45 123 -82.5t87 -83.5t50 -98.5t0 -114.5 q-70 -356 -495 -356q-96 0 -168 18t-113.5 50.5t-65.5 77t-25 97.5zM231 342q-24 -119 40 -187.5t241 -68.5q176 0 262.5 67.5t110.5 188.5q10 53 -8 101t-62 89t-91 72t-112 64q-346 -156 -381 -326zM414 1042q-8 -43 6.5 -82t52 -74.5t74 -61t92.5 -58.5q63 33 111.5 61 t103.5 66.5t88.5 78t40.5 77.5q19 101 -44 164t-196 63q-145 0 -227 -69t-102 -165z" />
<glyph unicode="9" horiz-adv-x="1019" d="M137 307q1 12 13 21.5t26 9.5h43q13 0 19 -9t4 -22q-23 -111 49 -166t235 -55q321 0 396 369l51 266q-5 -7 -15 -19.5t-45 -44.5t-75 -56t-104 -44t-132 -20q-90 0 -163.5 27t-124 76t-70.5 124t-2 166q83 442 524 442q103 0 176 -22t113.5 -60t59 -97t17 -124.5 t-17.5 -150.5l-92 -465q-19 -103 -56.5 -184.5t-98 -146.5t-152.5 -100.5t-209 -35.5q-219 0 -309.5 83t-59.5 238zM344 930q-14 -70 4 -127.5t59.5 -92.5t98 -54t121.5 -19q158 0 261 95.5t130 230.5q32 163 -35 236t-238 73q-336 0 -401 -342z" />
<glyph unicode=":" horiz-adv-x="348" d="M80 31l26 135q3 12 14 21.5t23 9.5h138q8 0 13.5 -7.5t7.5 -15.5l1 -8l-27 -135q-2 -12 -12 -21.5t-22 -9.5h-138q-13 0 -19.5 9t-4.5 22zM199 639l26 135q3 12 14 21.5t23 9.5h137q8 0 13.5 -7.5t7.5 -15.5l2 -8l-27 -135q-1 -12 -13 -21.5t-24 -9.5h-137q-26 0 -22 31z " />
<glyph unicode=";" horiz-adv-x="354" d="M42 -197.5q1 12.5 11 21.5q65 56 90.5 95.5t34.5 80.5h-74q-8 0 -16.5 10t-7.5 21l26 135q3 12 14 21.5t23 9.5h133q14 0 22 -10t5 -21l-27 -135q-30 -166 -165 -267q-11 -9 -24 -11t-21 7l-17 21q-8 9 -7 21.5zM199 639l26 135q3 12 14 21.5t23 9.5h137q8 0 13.5 -7.5 t7.5 -15.5l2 -8l-27 -135q-1 -12 -13 -21.5t-24 -9.5h-137q-26 0 -22 31z" />
<glyph unicode="&#x3c;" horiz-adv-x="827" d="M209 676q18 94 18 98q0 21 23 31l614 305q31 14 41 -12l13 -35q5 -12 -1.5 -24.5t-19.5 -18.5l-590 -293l477 -293q10 -6 11 -18.5t-7 -24.5l-28 -35q-7 -12 -20.5 -15t-22.5 3l-498 305q-4 3 -6.5 9.5t-2.5 11.5z" />
<glyph unicode="=" horiz-adv-x="798" d="M154 403l8 41q1 13 12.5 22t24.5 9h581q12 0 19 -9t6 -22l-8 -41q-3 -13 -14 -22.5t-23 -9.5h-582q-12 0 -19.5 9.5t-4.5 22.5zM215 723l8 41q3 13 14 23t23 10h582q12 0 19.5 -9.5t4.5 -21.5l-8 -43q-1 -12 -13 -21.5t-24 -9.5h-581q-12 0 -20 9t-5 22z" />
<glyph unicode="&#x3e;" horiz-adv-x="841" d="M184 389q-7 29 23 43l590 293l-478 293q-10 6 -11 18.5t7 24.5l27 35q19 26 47 12l496 -305q17 -10 10 -31l-21 -98q-6 -21 -20 -27l-616 -305q-12 -6 -23.5 -3t-15.5 15z" />
<glyph unicode="?" horiz-adv-x="931" d="M274 1087q57 289 459 289q83 0 147 -21t100.5 -57t58.5 -84t22.5 -102.5t-8.5 -112.5q-19 -94 -84 -161.5t-164 -120.5q-16 -8 -45.5 -25t-42.5 -24q-79 -42 -127 -88.5t-60 -114.5l-16 -72q-8 -31 -35 -31h-47q-12 0 -17.5 9.5t-2.5 21.5l14 72q10 51 33 94.5t58.5 77 t71 58t83.5 50.5q18 9 48 26.5t40 23.5q78 43 127 90.5t61 113.5q13 51 5 101t-31.5 89t-76.5 63t-130 24q-137 0 -227 -45t-109 -144q-3 -13 -14 -22.5t-23 -9.5h-45q-13 0 -19.5 9t-3.5 23zM295 31l27 135q3 12 14 21.5t24 9.5h138q7 0 12 -7.5t6 -15.5l2 -8l-26 -135 q-1 -12 -12 -21.5t-23 -9.5h-138q-12 0 -19 9.5t-5 21.5z" />
<glyph unicode="@" horiz-adv-x="1075" d="M172 294.5q-12 155.5 33 389.5q36 184 84 307.5t124 212.5t185.5 129.5t263.5 40.5q203 0 283 -102.5t45 -282.5l-57 -295q-60 -311 -398 -311q-140 0 -211 77t-45 208q15 76 51 132.5t87 88.5t108 47.5t121 15.5q48 0 87.5 -11t62 -26.5t38.5 -31t22 -26.5l5 -11l26 143 q29 141 -37 213t-208 72q-103 0 -180.5 -24t-132.5 -68.5t-96 -120t-68 -164t-52 -215.5q-20 -102 -28 -179.5t-4 -147.5t25 -117.5t59.5 -83t100 -52t146.5 -16.5q317 0 357 190q1 13 13 23t24 10h36q12 0 19.5 -9.5t5.5 -23.5q-14 -68 -43.5 -118.5t-83 -90.5 t-140.5 -60.5t-208 -20.5q-206 0 -307 76.5t-113 232zM582 668q-18 -93 29 -139t143 -46q125 0 189.5 47.5t82.5 141.5q19 90 -41.5 135t-159.5 45q-90 0 -158 -50t-85 -134z" />
<glyph unicode="A" horiz-adv-x="1093" d="M40 24q0 8 5 13l696 1304q2 5 10.5 12t16.5 7h74q6 0 10 -5.5t4 -11.5l199 -1308q1 -6 -3 -12.5t-10 -8.5l-65 -24q-4 -2 -8 -2q-3 0 -7 1q-8 3 -8 11l-36 231h-666l-119 -229q-4 -5 -13 -10q-6 -3 -10 -3q-2 0 -4 1l-59 20q-7 4 -7 14zM305 332h600l-129 882z" />
<glyph unicode="B" horiz-adv-x="1052" d="M142 290q2 66 18 150l147 756q12 64 75.5 113t123.5 49h248q217 0 303 -85q64 -64 64 -165q0 -34 -7 -72t-27 -78.5t-52.5 -82t-83.5 -71t-111 -36.5q82 -5 132.5 -53t62.5 -123q5 -33 5 -71q0 -47 -8 -99q-87 -436 -522 -436q-104 0 -177 22t-114 60.5t-59 97.5 q-17 55 -18 115v9zM262 438q-15 -76 -15 -135q0 -91 35 -139q57 -80 246 -80q96 0 168.5 25.5t118.5 73.5t73 106t42 133q9 47 9 86q0 84 -41 135q-60 74 -216 74h-174q-12 0 -20.5 9.5t-6.5 21.5l8 36q3 13 14 23t23 10h174q121 0 206.5 66.5t101.5 152.5q5 28 5 52 q1 73 -49 112q-66 53 -231 53h-246q-28 0 -49.5 -17.5t-27.5 -43.5q-37 -192 -148 -754z" />
<glyph unicode="C" horiz-adv-x="1052" d="M151 294q-3 33 -3 69q0 136 36 321q36 184 84 307t124.5 211t186 128t263.5 40q206 0 286 -74q60 -55 60 -147q0 -30 -6 -64q-3 -13 -15 -22.5t-24 -9.5h-37q-13 0 -19.5 9t-3.5 23q4 21 4 39q0 69 -57 103q-72 43 -209 43q-103 0 -180.5 -24t-132 -67.5t-95.5 -118.5 t-68 -163t-52 -215q-20 -102 -28 -180q-5 -52 -6 -100q0 -24 2 -47q4 -70 25 -117.5t59.5 -83t100 -52t146.5 -16.5q319 0 356 190q1 13 13 23t24 10h37q12 0 19.5 -9.5t5.5 -23.5q-14 -68 -43.5 -118.5t-83.5 -90.5t-141 -60.5t-208 -20.5q-206 0 -307 76t-113 232z" />
<glyph unicode="D" horiz-adv-x="1089" d="M130 184q-4 24 -4 49q0 42 11 89l170 874q12 66 71.5 114t127.5 48h254q204 0 304.5 -70.5t116.5 -220.5q4 -38 4 -80q0 -128 -36 -303q-28 -147 -62.5 -253.5t-86.5 -194t-121 -140.5t-164.5 -81.5t-220.5 -28.5q-120 0 -199.5 24t-117 68t-47.5 106zM240 322 q-7 -33 -7 -61q1 -75 47 -117q64 -58 234 -58q101 0 178 25.5t132 71.5t96 122t68.5 164.5t51.5 212.5q35 168 35 285q1 21 -1 41q-8 127 -86.5 186t-248.5 59h-252q-29 0 -50.5 -18t-26.5 -43z" />
<glyph unicode="E" horiz-adv-x="1019" d="M142 279q2 66 16 143q14 74 39 134.5t64.5 112.5t100 83t136.5 36q-58 13 -97.5 33.5t-59 44t-26 57t-4.5 62.5t11 70q62 321 454 321q209 0 289 -74q60 -55 60 -146q0 -31 -7 -66q-3 -14 -13.5 -23.5t-23.5 -9.5h-37q-12 0 -19.5 10t-4.5 23q4 21 4 39q0 69 -58 103 q-72 42 -210 42q-133 0 -221 -56t-109 -163q-5 -26 -5 -49q0 -66 45 -110q61 -58 210 -58h115q12 0 19.5 -9.5t4.5 -21.5l-6 -37q-3 -12 -14 -21.5t-23 -9.5h-115q-196 -1 -280 -72t-117 -245q-10 -57 -12 -107q0 -5 -1 -11q-1 -44 15 -82q16 -42 47 -72t87 -47t134 -17 q317 0 357 190q1 13 13 23t26 10h37q12 0 19 -9.5t5 -23.5q-14 -68 -43.5 -118.5t-83 -90.5t-141.5 -60.5t-209 -20.5q-99 0 -170.5 21t-113 59.5t-63.5 92.5q-21 51 -21 112v8z" />
<glyph unicode="F" horiz-adv-x="774" d="M170 711l6 37q3 13 15 22.5t24 9.5l129 -2q66 330 82 418q12 65 72.5 113.5t128.5 48.5h327q12 0 20 -10q6 -7 6 -15q0 -3 -1 -6l-6 -37q-3 -14 -13.5 -23.5t-23.5 -9.5h-326q-29 0 -54 -20t-30 -45l-82 -414h404q12 0 19.5 -9t4.5 -21l-6 -37q-3 -12 -14 -21.5t-23 -9.5 h-403l-127 -649q-1 -12 -12 -21.5t-23 -9.5h-37q-13 0 -21.5 9.5t-6.5 21.5l127 649h-131q-12 0 -20 10q-6 7 -6 15q0 3 1 6z" />
<glyph unicode="G" horiz-adv-x="1075" d="M155 294q-3 33 -3 69q0 136 36 321q36 184 84 308t124.5 212.5t185.5 129t262 40.5q210 0 290 -72q61 -55 61 -146q0 -31 -7 -66q-3 -12 -14.5 -21.5t-24.5 -9.5h-37q-12 0 -20 9.5t-5 21.5q4 21 4 39q0 69 -57 103q-73 42 -211 42q-103 0 -180.5 -24.5t-131.5 -68 t-95 -119.5t-67.5 -164t-51.5 -216q-20 -102 -28 -180q-5 -51 -5 -100q0 -24 1 -47q4 -70 25 -117.5t59.5 -83t100 -52t146.5 -16.5q317 0 354 190l66 342q2 27 -11.5 44.5t-41.5 17.5h-265q-12 0 -19.5 9.5t-4.5 21.5l6 37q3 13 14 21.5t23 8.5h266q80 0 115 -46 q25 -35 25 -78q0 -15 -3 -31l-67 -347q-14 -68 -44 -118.5t-84 -90.5t-142.5 -60.5t-209.5 -20.5q-205 0 -305.5 76.5t-112.5 231.5z" />
<glyph unicode="H" horiz-adv-x="1060" d="M82 31l252 1296q3 13 13.5 22t23.5 9h41q12 0 19.5 -9.5t4.5 -21.5l-106 -549h698l107 549q3 12 14.5 21.5t24.5 9.5h40q12 0 20 -10q6 -7 6 -15q0 -3 -1 -6l-252 -1296q-2 -12 -13 -21.5t-24 -9.5h-41q-12 0 -19 9.5t-5 21.5l125 647h-699l-127 -647q-2 -12 -13 -21.5 t-24 -9.5h-38q-13 0 -21 9.5t-6 21.5z" />
<glyph unicode="I" horiz-adv-x="733" d="M51 33l6 37q3 12 14 20t23 8h232l225 1159h-232q-12 0 -19.5 9.5t-4.5 21.5l6 37q3 13 14 23t23 10h575q13 0 21 -10q5 -8 5 -17q0 -4 -1 -8l-6 -37q-3 -12 -13.5 -20.5t-23.5 -8.5h-238l-225 -1159h238q12 0 19 -9t5 -21l-8 -37q-1 -13 -11 -22t-24 -9h-575 q-12 0 -20 10q-6 7 -6 16q0 3 1 7z" />
<glyph unicode="J" horiz-adv-x="806" d="M106 -188l7 34q3 14 14.5 23.5t24.5 9.5q260 0 301 215l227 1166h-395q-12 0 -20 9.5t-5 22.5l6 35q3 13 15 23t24 10l715 -2q14 0 22 -10q6 -7 6 -16q0 -3 -1 -7l-7 -35q-3 -13 -13.5 -21.5t-22.5 -8.5h-220l-227 -1166q-31 -161 -135.5 -238t-288.5 -77q-14 0 -22 10 q-6 7 -6 16q0 3 1 7z" />
<glyph unicode="K" horiz-adv-x="995" d="M82 31l252 1296q3 13 13.5 22t23.5 9h43q13 0 19 -9.5t3 -21.5l-106 -549h90q72 0 124.5 18.5t102.5 59.5l432 363q11 9 24.5 9t20.5 -9l23 -27q4 -6 4 -14q0 -4 -1 -8q-3 -12 -13 -21l-453 -381q-19 -17 -104 -63l309 -371q31 -38 47 -98q8 -32 7 -67q0 -29 -5 -60 l-16 -78q-2 -12 -13 -21.5t-24 -9.5h-41q-12 0 -19.5 9.5t-5.5 21.5l15 78q4 25 4 48q0 63 -35 103l-350 420h-142l-127 -649q-2 -12 -12 -21.5t-22 -9.5h-41q-13 0 -21 9.5t-6 21.5z" />
<glyph unicode="L" horiz-adv-x="786" d="M106 158l228 1169q3 12 13 21.5t22 9.5h45q13 0 20 -9.5t4 -21.5l-225 -1165q0 -27 14.5 -44.5t42.5 -17.5h461q12 0 20 -9q6 -7 6 -15q0 -3 -1 -6l-8 -39q-1 -13 -12 -22t-23 -9h-469q-68 0 -110 44q-32 33 -31 82q0 15 3 32z" />
<glyph unicode="M" horiz-adv-x="1232" d="M80 31l252 1296q3 12 14 21.5t23 9.5h71q8 0 14 -4t8 -8l1 -5l244 -825l567 825q8 17 26 17h72q12 0 20 -10q6 -7 6 -15q0 -3 -1 -6l-252 -1296q-1 -12 -12 -21.5t-23 -9.5h-41q-13 0 -21 9.5t-6 21.5l222 1134q-500 -731 -508 -743q-19 -23 -37 -23h-70q-20 0 -24 25 l-219 739l-222 -1132q-2 -12 -13 -21.5t-24 -9.5h-43q-12 0 -19 10q-5 7 -5 16v5z" />
<glyph unicode="N" horiz-adv-x="1036" d="M80 31l252 1296q3 12 14 21.5t23 9.5h77q21 0 25 -19l410 -1163l223 1151q3 12 14 21.5t23 9.5h43q12 0 18 -10q4 -6 5 -14q0 -4 -1 -7l-252 -1296q-2 -12 -12 -21.5t-22 -9.5h-78q-21 0 -25 18l-414 1151l-221 -1138q-1 -12 -12 -21.5t-23 -9.5h-43q-12 0 -19 10 q-5 7 -5 16v5z" />
<glyph unicode="O" horiz-adv-x="1150" d="M154 296q-2 31 -3 66q0 137 37 324q35 184 83 307.5t123.5 212t184.5 128.5t261 40q212 0 309 -66.5t111 -219.5q3 -33 4 -71q0 -136 -41 -331q-26 -132 -54.5 -230t-68 -178.5t-87.5 -133.5t-113.5 -89.5t-146 -52.5t-184.5 -16q-204 0 -303.5 77t-111.5 233zM256 342 q6 -136 84.5 -203t245.5 -67q87 0 154.5 15.5t120 50t91 81.5t69.5 119.5t53 153t44 192.5q39 190 39 317q-1 16 -1 31q-6 134 -83 194t-250 60q-128 0 -216.5 -35t-149 -114t-97.5 -184t-69 -269q-35 -181 -35 -308q-1 -18 0 -34z" />
<glyph unicode="P" horiz-adv-x="1011" d="M80 31l229 1171q12 67 67.5 111.5t119.5 44.5h276q67 0 126.5 -14t111.5 -45t84 -79.5t45 -117.5q5 -28 5 -60q0 -46 -11 -100q-45 -229 -178 -336.5t-351 -107.5h-330l-92 -467q-1 -12 -12 -21.5t-23 -9.5h-43q-12 0 -19 10q-5 7 -5 16v5zM293 598h330q167 0 267.5 83.5 t135.5 260.5q8 41 8 77q0 91 -54 151q-74 82 -228 83h-265q-28 0 -48.5 -17.5t-28.5 -43.5z" />
<glyph unicode="Q" horiz-adv-x="1153" d="M156 306q-3 33 -3 71q0 133 35 315q36 182 83.5 304.5t123.5 209.5t184.5 126.5t260.5 39.5q212 0 309.5 -64.5t112.5 -215.5q3 -33 3 -70q0 -135 -42 -330q-54 -277 -135.5 -426t-231.5 -223l31 -84q10 -27 18 -43.5t26 -41.5t48 -45.5t72 -37.5q10 -4 12 -17.5 t-4 -23.5l-27 -35q-12 -16 -27 -16q-7 0 -16 4q-47 15 -82 37t-58.5 54.5t-34.5 54t-28 61.5l-36 104q-101 -14 -177 -14q-204 0 -304.5 76t-112.5 230zM259 352q6 -134 85 -200t246 -66q36 0 131 10l-113 310q-3 12 3 24.5t18 18.5l43 20q12 5 23 0.5t14 -14.5l118 -324 q65 40 112.5 93t81 126t55.5 151t44 189q39 187 39 312q0 17 -1 32q-6 133 -84 192.5t-251 59.5q-103 0 -180 -24t-132.5 -68t-96.5 -119.5t-68.5 -165.5t-52.5 -219q-35 -177 -35 -302q0 -19 1 -36z" />
<glyph unicode="R" horiz-adv-x="1048" d="M80 31l227 1165q14 75 69 118.5t124 43.5h280q81 0 145 -15t104.5 -40.5t69 -60t38.5 -74t13 -81.5q1 -10 0 -19q0 -32 -7 -64q-34 -174 -144.5 -272t-293.5 -111l237 -287q30 -38 46 -98q8 -32 9 -67q0 -29 -6 -60l-16 -78q-2 -12 -13 -21.5t-24 -9.5h-43 q-12 0 -19.5 9.5t-5.5 21.5l19 78q4 23 4 44q0 64 -37 109l-297 359h-262l-115 -590q-1 -12 -12 -21.5t-23 -9.5h-43q-12 0 -19 10q-5 7 -5 16v5zM317 721h334q74 0 133.5 13t113 43t90 86.5t52.5 137.5q5 28 5 52q0 81 -58 133q-76 66 -227 67h-275q-27 0 -47 -17.5 t-28 -43.5z" />
<glyph unicode="S" horiz-adv-x="1040" d="M126 162q-6 24 -6 51q0 32 9 66q3 13 14 22.5t23 9.5h43q13 0 20 -9t4 -21q-4 -19 -4 -36q0 -67 57 -107q71 -50 236 -50q179 0 280 79t126 212q4 35 3 62t-16 51.5t-30.5 42.5t-42.5 35.5t-50.5 29.5t-54.5 25q-32 13 -111 42t-134 55t-99 60q-92 73 -92 184q0 29 6 60 q29 153 150 250.5t315 97.5q210 0 290 -74q61 -56 60 -151q0 -30 -6 -64q-3 -13 -15 -22.5t-24 -9.5h-43q-26 0 -22 30q4 21 4 39q0 42 -22 73q-32 44 -93 61.5t-149 17.5q-286 0 -334 -248q-4 -21 -4 -40q0 -51 30 -88q42 -51 125 -89q30 -14 145 -57.5t171 -75.5 q60 -33 97.5 -70.5t54.5 -95.5q9 -32 9 -67q0 -30 -6 -62q-17 -83 -56.5 -152.5t-103.5 -124.5t-160.5 -85.5t-217.5 -30.5q-122 0 -204 21.5t-120 60t-52 92.5z" />
<glyph unicode="T" horiz-adv-x="827" d="M279 1290l8 39q1 12 12 20.5t23 8.5h702q14 0 22 -10q6 -7 6 -16q0 -3 -1 -7l-7 -39q-3 -12 -13.5 -20.5t-22.5 -8.5h-303l-177 -905q-12 -60 -12 -105q0 -59 20 -91q36 -56 142 -56h27q12 0 19.5 -9.5t4.5 -22.5l-8 -39q-1 -12 -12 -20.5t-23 -8.5q-125 0 -191 40 q-65 39 -79 117q-5 30 -6 65q0 58 14 130l176 905h-295q-13 0 -21 10q-5 7 -6 16q0 3 1 7z" />
<glyph unicode="U" horiz-adv-x="1030" d="M172 494l162 833q3 12 14 21.5t23 9.5h43q13 0 20 -9.5t4 -21.5l-164 -833q-21 -106 -22 -185q0 -22 2 -41q8 -90 74.5 -135t203.5 -45q71 0 127.5 12.5t97.5 39t71.5 59t52.5 80.5t36 95.5t27 110.5l162 842q3 12 14.5 21.5t24.5 9.5h43q12 0 18 -10q4 -6 5 -14 q0 -4 -1 -7l-163 -840q-52 -268 -176.5 -383.5t-358.5 -115.5q-244 0 -319 112q-44 65 -44 188q0 88 23 206z" />
<glyph unicode="V" horiz-adv-x="1128" d="M307 1333q-1 2 -1 4q0 4 3 9q4 7 10 8l64 22q2 1 4 1q5 1 11 -3q8 -4 8 -12l184 -1212l651 1210q3 8 11.5 12.5t17.5 1.5l53 -20q8 -3 8 -14q0 -5 -2 -11l-706 -1311q-9 -18 -25 -18h-74q-12 0 -16 16z" />
<glyph unicode="W" horiz-adv-x="1521" d="M291 1333q0 17 14 21l64 22q5 2 12.5 -2.5t7.5 -11.5l182 -1212l260 505l-61 420q-3 6 0.5 12.5t9.5 8.5l66 22q6 2 13 -2.5t7 -11.5l144 -954l649 1224q3 7 11 12q5 4 9 4q2 0 4 -1l56 -23q8 -4 8 -11q0 -4 -2 -9l-705 -1328q-9 -18 -24 -18h-74q-6 0 -11 5t-5 11 l-68 502l-256 -500q-9 -18 -24 -18h-74q-6 0 -11.5 5t-5.5 11z" />
<glyph unicode="X" horiz-adv-x="1150" d="M37 36q0 8 6 13l604 664l-311 598q-7 13 6 22l61 41q4 4 10 4q2 0 5 -1q9 -2 10 -9l297 -569l514 569q4 7 15 9q3 1 6 1q6 0 8 -4l45 -41q6 -4 6 -9q0 -6 -8 -13l-541 -598l338 -664q3 -6 0.5 -14.5t-8.5 -11.5l-64 -37q-5 -4 -10 -4q-6 0 -10 8l-324 635l-577 -635 q-6 -9 -14 -9q-5 0 -11 5l-47 37q-6 4 -6 13z" />
<glyph unicode="Y" horiz-adv-x="964" d="M293 1325q-1 4 -1 7q0 11 11 16l62 28q3 1 6 1q4 0 9 -2q8 -4 9 -11l211 -719l477 719q3 7 13 11q5 2 9 2q3 0 5 -1l53 -24q8 -5 8 -12q0 -5 -4 -11l-555 -831q-68 -99 -82 -181l-57 -286q-1 -12 -12 -21.5t-23 -9.5h-43q-13 0 -21 9.5t-6 21.5l58 286q9 44 33.5 95.5 t44.5 81.5l20 30z" />
<glyph unicode="Z" horiz-adv-x="985" d="M82 33l10 59q1 5 4.5 11.5t6.5 10.5l3 3l920 1140h-676q-12 0 -19.5 10t-4.5 23l8 39q1 12 12 20.5t23 8.5h766q11 0 19 -10q5 -7 6 -16q0 -3 -1 -7l-10 -55q-1 -5 -4 -11.5t-5 -10.5l-3 -3l-918 -1145h701q13 0 21 -9t5 -21l-8 -39q-1 -13 -12 -22t-23 -9h-797 q-12 0 -20 10q-5 7 -5 16q0 3 1 7z" />
<glyph unicode="[" horiz-adv-x="477" d="M63 -55l244 1253q14 73 71.5 116.5t141.5 43.5h189q12 0 19.5 -10t4.5 -23l-6 -39q-3 -12 -14 -20.5t-23 -8.5h-184q-30 0 -55 -16.5t-31 -44.5l-244 -1253q-4 -27 14 -45.5t48 -18.5h184q12 0 19.5 -10t4.5 -23l-8 -36q-1 -13 -12 -22t-23 -9h-186q-76 0 -121 48.5 t-33 117.5z" />
<glyph unicode="\" horiz-adv-x="1105" d="M323 1367q5 13 17 19l41 23q12 7 24 5t17 -13l620 -1387q6 -11 1 -24t-17 -19l-41 -22q-12 -7 -24.5 -5t-18.5 13l-618 1386q-6 11 -1 24z" />
<glyph unicode="]" horiz-adv-x="483" d="M-37 -190l8 36q3 13 13.5 23t21.5 10h184q30 0 56 18.5t30 45.5l244 1253q6 28 -12.5 44.5t-48.5 16.5h-185q-12 0 -19.5 8.5t-4.5 20.5l6 39q3 13 14 23t23 10h188q84 0 125 -43.5t27 -116.5l-244 -1253q-12 -69 -75 -117.5t-140 -48.5h-184q-13 0 -21 8.5t-6 22.5z" />
<glyph unicode="^" horiz-adv-x="935" d="M265.5 978.5q3.5 13.5 15.5 22.5l424 357l2 2q11 9 24 8t19 -10l288 -357q6 -9 3 -22.5t-13 -22.5l-33 -28q-12 -9 -25.5 -9t-19.5 9l-245 305l-365 -305q-12 -9 -25.5 -9t-19.5 9l-25 28q-8 9 -4.5 22.5z" />
<glyph unicode="_" horiz-adv-x="829" d="M-98 -193l4 23q3 12 14.5 21.5t24.5 9.5h876q12 0 20 -9.5t5 -21.5l-4 -20q-1 -13 -13 -23t-24 -10h-877q-13 0 -20.5 9t-5.5 21z" />
<glyph unicode="`" horiz-adv-x="1052" d="M581 1280.5q-3 12.5 3 24.5l12 16q6 12 19 17.5t24 0.5l301 -120q12 -4 15 -16.5t-5 -24.5l-8 -17q-7 -12 -20.5 -17.5t-24.5 -0.5l-303 121q-10 4 -13 16.5z" />
<glyph unicode="a" d="M123 124q-13 36 -13 84t13 107q22 114 73.5 182.5t155.5 105t273 36.5q127 0 199 -27t114 -82l31 164q4 21 4 40q-1 74 -61 120q-76 58 -224 57q-69 0 -116 -6t-90.5 -22.5t-69.5 -50.5t-37 -87q-1 -13 -13 -21.5t-26 -8.5h-41q-12 0 -20 8.5t-7 21.5q27 137 130.5 203 t310.5 66q203 0 297 -89q72 -68 72 -167q0 -31 -7 -64l-61 -317q-42 -214 -155.5 -301.5t-356.5 -87.5q-174 0 -261.5 32t-113.5 104zM225 315q-6 -30 -6 -56q1 -75 49 -115q66 -54 250 -54t270 56.5t111 189.5q5 22 5 42q0 68 -56 108q-72 50 -244 51q-335 0 -379 -222z " />
<glyph unicode="b" horiz-adv-x="1001" d="M146 292q2 84 24 200l162 835q3 12 14 21.5t23 9.5h41q13 0 21 -9.5t5 -21.5l-86 -444q4 5 12 14t39 32t68.5 40.5t102.5 32t139 14.5q94 0 159 -15.5t112 -51.5q46 -37 67 -97q20 -58 20 -141v-7q-1 -88 -25 -212q-29 -151 -68 -246t-103 -154t-149 -81.5t-214 -22.5 q-99 0 -166.5 16t-113.5 51t-66 95q-18 55 -18 131v11zM272 492q-19 -94 -19 -165q-1 -97 35 -149q60 -90 242 -90q101 0 168 19.5t114.5 69t76 123t51.5 192.5q20 104 20 181q0 93 -30 146q-54 96 -240 96t-279 -96t-139 -327z" />
<glyph unicode="c" horiz-adv-x="991" d="M160 512q54 275 183 388.5t359 113.5q206 0 286 -74q60 -55 60 -148q0 -30 -6 -65q-3 -13 -13 -22t-23 -9h-37q-12 0 -20 9.5t-5 21.5q4 21 4 39q0 68 -56 102q-72 42 -210 43q-182 0 -280 -91t-140 -308q-19 -99 -19 -174q0 -94 30 -150q54 -100 243 -100 q134 0 227.5 48.5t114.5 148.5q1 13 12 22.5t25 9.5h37q12 0 19 -9t5 -23q-28 -139 -141 -218t-319 -79q-232 0 -311 122q-47 73 -47 201q0 88 22 201z" />
<glyph unicode="d" horiz-adv-x="1013" d="M130 288q2 84 26 204q30 153 74.5 254t111.5 161t150.5 84.5t201.5 24.5q74 0 133 -13.5t90.5 -33t52.5 -39.5t28 -34l6 -13l86 444q3 13 13 22t23 9h41q12 0 20 -10q6 -7 6 -15q0 -3 -1 -6l-162 -835q-55 -285 -173.5 -394.5t-362.5 -109.5q-103 0 -171 15t-114 49 q-45 32 -63 92q-15 52 -16 123v21zM240 252q14 -90 77 -127t197 -37q181 0 275.5 90t138.5 314q19 101 19 176q1 97 -31 151q-56 96 -242 96t-277.5 -96t-136.5 -327q-23 -107 -24 -183q0 -31 4 -57z" />
<glyph unicode="e" horiz-adv-x="991" d="M138 219q-4 32 -4 69q0 93 24 216q56 288 188 407q114 105 348 105q222 0 310 -75q66 -56 67 -154q0 -33 -8 -72q-54 -285 -483 -285q-121 0 -204 24.5t-112 67.5q-11 -64 -16 -108.5t-6 -93.5v-10q0 -42 8 -70q8 -32 26.5 -62.5t50 -47.5t78 -27.5t109.5 -10.5 q323 0 363 195q1 12 12.5 21t23.5 9h37q13 0 21 -9t6 -21q-30 -148 -145.5 -222.5t-335.5 -74.5q-173 0 -259 57.5t-99 171.5zM309 672q-4 -13 -4 -24q1 -46 59 -78q72 -40 236 -40q326 0 361 185q5 22 5 42q0 73 -61 109q-77 48 -231 47.5t-240 -55.5q-85 -55 -125 -186z " />
<glyph unicode="f" horiz-adv-x="598" d="M201 31l170 872h-133q-12 0 -19.5 9.5t-5.5 23.5l8 37q1 12 13 21.5t24 9.5h133q36 190 128.5 271t283.5 81q12 0 19 -10q6 -6 6 -14q0 -4 -1 -7l-6 -37q-3 -12 -14 -21.5t-23 -9.5h-28q-108 0 -171.5 -57t-90.5 -196h229q12 0 19.5 -9.5t5.5 -23.5l-9 -37 q-1 -12 -13 -21.5t-24 -9.5h-229l-170 -872q-1 -12 -12 -21.5t-23 -9.5h-41q-12 0 -20 9.5t-6 21.5z" />
<glyph unicode="g" horiz-adv-x="1007" d="M108 108.5q0 26.5 5 61.5q10 63 62.5 118.5t146.5 76.5q-139 64 -139 220q0 42 10 91q19 98 62.5 165.5t111 104.5t147 52.5t184.5 15.5q62 0 110.5 -4t93.5 -14t75.5 -27t56 -42.5t35 -60.5t13.5 -82v-19q0 -39 -11 -85q-20 -103 -60 -172t-104.5 -108t-143 -54.5 t-188.5 -15.5q-52 0 -99.5 -5.5t-104.5 -20.5t-95.5 -49.5t-48.5 -84.5q-2 -11 -2 -20q0 -35 29 -57q36 -28 117 -44l305 -55q116 -25 159 -84q29 -40 29 -101q0 -28 -6 -61q-8 -39 -33.5 -81.5t-56.5 -75.5t-60.5 -60.5t-49.5 -42.5l-19 -14q-11 -9 -24 -10h-3q-11 0 -18 8 l-25 30q-8 9 -5.5 22.5t14.5 22.5q7 5 28 22.5t29 24t25.5 22.5t25.5 24.5t21 24t19 27t12.5 26.5t9.5 30q3 17 3 32q0 43 -26 66q-35 31 -111 52l-313 59q-36 8 -63 17t-52.5 21.5t-40 28t-26 37t-11.5 48zM290 591q1 -38 18.5 -66t40.5 -46t61 -29t80 -15.5t96 -4.5 q62 0 105 3.5t93 18t83 40.5t61 73.5t41 114.5q7 34 8 62v8q0 24 -5 42q-6 22 -14 39.5t-24 30t-30.5 22t-38 15t-42 9t-47 5t-48 2t-50.5 0.5q-38 0 -67.5 -1.5t-67.5 -7t-66.5 -15t-59.5 -27t-53 -42t-40 -60.5t-27 -82q-7 -48 -7 -84v-5z" />
<glyph unicode="h" horiz-adv-x="1026" d="M80 31l252 1296q3 12 14 21.5t23 9.5h45q13 0 19 -9.5t3 -21.5l-94 -485q4 7 13 18.5t41.5 41t71.5 52.5t104.5 41.5t138.5 18.5q131 0 209 -26q77 -26 116 -86q39 -59 39 -154q0 -96 -26 -240l-95 -477q-2 -12 -12 -21.5t-22 -9.5h-46q-12 0 -18 9t-4 22l94 477 q18 97 20 165q0 7 1 13q0 60 -13 102q-14 48 -49.5 75t-86.5 38.5t-128 11.5q-80 0 -143.5 -20t-107.5 -54.5t-77 -88t-53 -112.5t-35 -136l-92 -471q-1 -12 -12 -21.5t-23 -9.5h-45q-12 0 -18 9q-4 7 -4 16v6z" />
<glyph unicode="i" horiz-adv-x="475" d="M147 371l117 602q1 12 13 21.5t24 9.5h43q13 0 19 -9t4 -22l-117 -602q-10 -49 -9 -89q0 -177 189 -182h29q12 0 19.5 -9t4.5 -21l-6 -37q-3 -13 -14 -23t-23 -10q-193 0 -261 93q-44 61 -44 161q0 53 12 117zM307 1192l25 135q3 12 14 21.5t23 9.5h137q8 0 13.5 -8 t6.5 -16l2 -7l-24 -135q-3 -12 -14 -21.5t-23 -9.5h-137q-14 -1 -20 9q-4 6 -4 15q0 3 1 7z" />
<glyph unicode="j" horiz-adv-x="350" d="M-60 -346q6 13 15 18q80 41 129.5 98.5t58.5 112.5l213 1090q1 12 13 21.5t24 9.5h45q12 0 18.5 -9.5t4.5 -21.5l-213 -1096q-18 -90 -85.5 -163.5t-162.5 -123.5q-7 -6 -16 -6h-6q-13 3 -19 13l-18 34q-3 5 -3 11t2 12zM307 1192l25 135q3 12 14 21.5t23 9.5h137 q8 0 13.5 -8t6.5 -16l2 -7l-24 -135q-3 -12 -14 -21.5t-23 -9.5h-137q-13 0 -20 9q-4 7 -4 15q0 3 1 7z" />
<glyph unicode="k" horiz-adv-x="931" d="M80 31l252 1296q3 12 14 21.5t23 9.5h45q13 0 19 -9.5t3 -21.5l-143 -747h76q72 0 123.5 16.5t101.5 58.5l403 340q11 9 24 9t21 -9l25 -30q5 -6 5 -14q0 -3 -1 -7q-3 -12 -14 -22l-426 -355q-19 -17 -107 -63l357 -441q6 -9 2.5 -22.5t-13.5 -22.5l-36 -32q-9 -7 -19 -7 h-4q-12 2 -18 11l-396 491l-125 -2l-88 -448q-2 -12 -13 -21.5t-24 -9.5h-45q-12 0 -18 9q-4 7 -4 16v6z" />
<glyph unicode="l" horiz-adv-x="497" d="M147 371l185 956q3 12 14 21.5t23 9.5h43q13 0 19 -9.5t3 -21.5l-184 -956q-10 -51 -10 -92q0 -179 190 -179h29q11 0 19 -9q5 -6 6 -14q0 -3 -1 -7l-6 -37q-3 -13 -14 -23t-23 -10q-193 0 -261 93q-44 61 -44 161q0 53 12 117z" />
<glyph unicode="m" horiz-adv-x="1546" d="M78 31l98 506q18 91 39.5 158.5t58 130t84.5 102t119.5 63t163.5 23.5q125 0 195.5 -43.5t83.5 -151.5q64 109 152.5 152t211.5 43q77 0 133.5 -15.5t91 -46.5t54 -70.5t23.5 -95.5q2 -23 1 -47q-1 -32 -3 -65q-6 -57 -19 -129l-101 -514q-2 -12 -13 -21.5t-24 -9.5h-41 q-12 0 -18 9t-4 22l100 512q14 67 18 117q2 19 1 39q0 30 -4 61q-7 50 -30 81t-69.5 50.5t-115.5 19.5q-54 0 -97.5 -10t-75 -25.5t-56.5 -43.5t-41.5 -55.5t-30.5 -70.5t-22.5 -78.5t-18.5 -88.5l-101 -508q-2 -12 -13 -21.5t-24 -9.5h-39q-13 0 -19.5 9t-4.5 22l100 512 q11 57 15 99q4 38 5 78q-1 4 -1 9q0 45 -13 75.5t-37 56t-66.5 38t-102.5 12.5q-72 0 -127.5 -21t-90 -53t-60.5 -84.5t-39.5 -100t-27.5 -115.5l-98 -506q-1 -12 -12 -21.5t-23 -9.5h-41q-14 0 -20 9q-5 7 -4 16v6z" />
<glyph unicode="n" horiz-adv-x="1028" d="M80 31l100 512q49 246 178 358.5t353 112.5q240 0 317 -108q47 -65 46 -184q0 -77 -19 -175l-101 -516q-2 -12 -12 -21.5t-22 -9.5h-43q-12 0 -19.5 9.5t-5.5 21.5l100 516q16 80 16 142q0 34 -4 62q-14 81 -80 120.5t-194 39.5q-179 0 -276 -96t-131 -276l-101 -508 q-2 -12 -13 -21.5t-24 -9.5h-41q-14 0 -20 9q-5 7 -4 16v6z" />
<glyph unicode="o" horiz-adv-x="1007" d="M160 502q38 193 100 302.5t165.5 159.5t270.5 50q129 0 206 -26q76 -24 118 -84q41 -59 41 -156t-27 -246q-29 -152 -71.5 -250.5t-108.5 -157.5t-150.5 -82.5t-207.5 -23.5q-238 0 -314 116q-45 67 -45 191q0 89 23 207zM262 502q-21 -107 -21 -184q-1 -92 29 -140 q54 -88 246 -88q196 0 283.5 88.5t132.5 323.5q21 108 21 185q-1 90 -29 137q-52 87 -248 87q-99 0 -166 -20t-116 -69t-79 -125t-53 -195z" />
<glyph unicode="p" horiz-adv-x="1013" d="M6 -354l168 864q53 271 174.5 388.5t362.5 117.5q84 0 143.5 -10t104 -34.5t69.5 -62.5t35 -97q6 -37 6 -82q0 -24 -1 -51q-6 -75 -26 -177q-29 -148 -71 -245.5t-107 -157t-149 -84.5t-203 -25q-76 0 -135.5 13.5t-91 32t-52 37.5t-26.5 33l-6 13l-92 -471 q-3 -13 -14 -23t-23 -10h-43q-12 0 -19 9q-5 7 -5 15q0 3 1 7zM279 502q-17 -91 -17 -160q0 -101 36 -156q60 -94 232 -94q100 0 168.5 22t116 74t76.5 125.5t51 188.5q23 108 23 186q0 29 -3 54q-12 92 -75.5 132.5t-196.5 40.5q-101 0 -169 -22t-115.5 -74t-76 -126 t-50.5 -191z" />
<glyph unicode="q" d="M130 326q6 73 26 174q30 152 70 249t104.5 157t149 84t210.5 24q244 0 317 -114q41 -65 41 -184q0 -92 -24 -216l-125 -647q-3 -16 -3 -33q0 -77 73 -156q7 -9 5.5 -22.5t-11.5 -20.5l-37 -31q-11 -9 -21 -9q-11 0 -20 11q-17 17 -31 35q-62 77 -62 170q0 27 5 56l59 311 q-3 -7 -10 -19t-36 -42t-66 -52.5t-104.5 -41.5t-147.5 -19q-89 0 -151.5 10.5t-107 35.5t-68.5 62t-33 96q-4 35 -4 74q0 28 2 58zM238 262q11 -91 75 -132.5t197 -41.5q172 0 270.5 95t141.5 317q22 108 22 187q0 27 -2 51q-11 92 -75 133.5t-197 41.5 q-101 0 -169.5 -21.5t-116 -73.5t-76 -126.5t-50.5 -191.5q-22 -108 -22 -186q0 -28 2 -52z" />
<glyph unicode="r" horiz-adv-x="630" d="M80 31l117 596q40 204 136 290.5t281 86.5h144q12 0 19 -10q5 -8 5 -18v-5l-8 -37q-3 -13 -14 -22t-23 -9q-90 -2 -143 -2q-135 0 -201.5 -69.5t-93.5 -204.5l-117 -596q-1 -12 -12 -21.5t-23 -9.5h-43q-14 0 -20 9q-5 7 -4 16v6z" />
<glyph unicode="s" horiz-adv-x="995" d="M112 164q-5 24 -6 51q0 33 9 70q1 12 12 21t23 9h43q13 0 19.5 -8.5t4.5 -21.5q-4 -19 -4 -37q0 -67 57 -107q72 -51 238 -51q116 0 196 27t119 70t51 102q3 15 3 29q-1 22 -9 42q-14 30 -34.5 48t-68.5 32t-80 19.5t-96 14.5q-5 1 -7 1q-163 24 -225 49 q-120 48 -120 159q0 11 1 22l4 24q25 131 135 208t311 77q209 0 289 -76q60 -56 59 -150q0 -32 -6 -67q-3 -12 -14 -21.5t-23 -9.5h-43q-12 0 -18.5 9.5t-3.5 21.5q4 22 4 41q0 68 -56 104q-72 44 -208 45q-288 0 -324 -182q-2 -12 -2 -22q0 -63 80 -92q48 -16 196 -35 q74 -10 117 -17.5t102.5 -28.5t88.5 -49q30 -29 47 -79q10 -29 10 -62q0 -26 -6 -55q-61 -301 -490 -301q-122 0 -204 21.5t-120.5 61t-50.5 93.5z" />
<glyph unicode="t" horiz-adv-x="589" d="M219 934l8 37q1 13 13 23t24 10h131l43 225q3 12 14 21.5t23 9.5h45q12 0 20 -9.5t5 -21.5l-43 -225h211q12 0 19 -10q5 -7 5 -16v-5l-8 -37q-1 -13 -13 -23t-24 -10h-211l-106 -551q-11 -56 -11 -99q0 -63 24 -97q40 -56 147 -56h28q12 0 20 -9.5t5 -22.5l-8 -37 q-1 -12 -12 -21.5t-23 -9.5q-188 0 -250 86q-40 55 -40 148q0 53 13 118l107 551h-131q-12 0 -19.5 9.5t-5.5 21.5z" />
<glyph unicode="u" horiz-adv-x="1024" d="M164 455l100 518q1 12 13 21.5t26 9.5h43q11 0 17 -9t4 -22l-101 -518q-15 -77 -15 -137q-1 -90 33 -142q56 -86 246 -86q179 0 276.5 96.5t131.5 276.5l100 510q1 12 13 21.5t24 9.5h43q13 0 19 -9q5 -7 5 -16q0 -3 -1 -6l-101 -514q-47 -246 -176.5 -358.5 t-353.5 -112.5q-231 0 -313 110q-51 69 -51 191q0 74 18 166z" />
<glyph unicode="v" horiz-adv-x="946" d="M225 958v6q1 10 5 18q6 12 18 15l47 17q5 2 10 2q7 0 13 -4q11 -6 14 -17l157 -878l500 878q12 20 31 20q7 0 14 -3l37 -15q14 -5 14 -21q0 -10 -6 -20l-549 -929q-16 -27 -34 -27h-58q-19 0 -28 27z" />
<glyph unicode="w" horiz-adv-x="1355" d="M227 958v6q1 10 5 18q6 12 18 15l43 17q5 2 10 2q7 0 13 -3q12 -6 14 -18l149 -864l258 461l-69 366q-2 12 5 23.5t19 15.5l43 17q5 2 11 2l13 -3q12 -6 13 -18l150 -862l479 862q9 11 21 17q7 3 14 4q5 0 10 -2l33 -17q15 -6 15 -18q0 -9 -7 -21l-526 -931 q-5 -9 -16 -18t-21 -9h-58q-19 0 -28 27l-76 419l-242 -419q-5 -9 -16 -18t-21 -9h-57q-20 0 -29 27z" />
<glyph unicode="x" horiz-adv-x="964" d="M74 66l436 440l-252 424q-14 25 12 41l39 28q9 5 20 5h5q14 -2 20 -11l236 -403l395 401q9 10 22.5 12t22.5 -6l31 -26q9 -7 9 -17q0 -11 -13 -26l-416 -422l262 -443q5 -10 1.5 -23t-15.5 -20l-39 -26q-10 -6 -20 -6h-4q-12 2 -19 12l-248 422l-414 -420 q-17 -14 -30 -14q-9 0 -17 6l-28 29q-8 7 -8 18q0 13 12 25z" />
<glyph unicode="y" horiz-adv-x="937" d="M156 -395q-1 10 -1 21q0 59 19 120q23 73 48 110l24 38l196 296l-215 756q-3 11 2.5 23t18.5 16l43 21q7 2 13 2t12 -2q11 -5 14 -17l192 -680l451 676q8 12 20.5 17.5t24.5 1.5l37 -17q15 -6 15 -18q0 -9 -7 -21l-727 -1095q-12 -12 -27.5 -36.5t-32.5 -78.5 q-14 -47 -14 -94v-17q1 -12 -6.5 -23t-19.5 -14l-46 -10h-4q-12 0 -20 6q-10 7 -10 19z" />
<glyph unicode="z" horiz-adv-x="972" d="M82 35l8 47q5 21 25 41l811 778h-654q-12 0 -19 10.5t-5 22.5l8 37q1 13 13 23t24 10h762q15 0 21 -9q4 -6 4 -15q0 -4 -1 -9l-8 -43q-5 -23 -29 -47l-813 -779h682q12 0 20 -9t5 -21l-6 -39q-3 -12 -14 -22.5t-23 -10.5h-782q-15 0 -23 10q-6 7 -7 18q0 3 1 7z" />
<glyph unicode="{" horiz-adv-x="501" d="M141 289q14 57 66.5 148t62.5 128q8 33 -8.5 53.5t-56.5 20.5h-27q-20 0 -20 25q8 35 10 47q1 9 10.5 16.5t18.5 7.5h26q40 0 64.5 21t29.5 55q5 36 -11 128t-9 148q10 65 53 126t107.5 109t127 83t130.5 63q16 6 20 -6l10 -35q3 -13 -12 -22q-107 -47 -217.5 -137.5 t-126.5 -173.5q-10 -57 12.5 -152.5t18.5 -118.5q-6 -29 -22 -53t-34.5 -38.5t-36.5 -25t-30 -14.5l-12 -4q4 -1 11 -4t23.5 -14.5t28 -25.5t18.5 -39t1 -54q-4 -22 -34 -68t-61.5 -101t-40.5 -99t10.5 -93t56.5 -91t77.5 -75.5t79.5 -54.5q11 -6 4 -20l-25 -35 q-8 -13 -22 -6q-57 28 -106.5 63t-95 83t-65 109t-4.5 126z" />
<glyph unicode="|" horiz-adv-x="260" d="M29 -242l303 1569q3 12 14 21.5t23 9.5h43q12 0 19.5 -9.5t4.5 -21.5l-303 -1569q-3 -12 -14 -21t-23 -9h-43q-12 0 -19.5 9t-4.5 21z" />
<glyph unicode="}" horiz-adv-x="501" d="M25 -51q-7 14 12 20q109 49 218.5 140t123.5 174q11 57 -11 152t-18 116q6 29 22 54t34.5 39.5t36.5 25t30 14.5l12 4q-4 1 -11 4t-23.5 14t-28 25t-18.5 38.5t-1 53.5q4 23 64 118.5t70 152.5q18 83 -57.5 173.5t-164.5 137.5q-14 8 -4 22l23 35q11 11 24 6 q57 -28 106.5 -63t95 -83t65 -109t4.5 -126q-15 -57 -68 -149t-63 -127q-8 -34 8.5 -55t56.5 -21h27q9 0 15.5 -7.5t4.5 -16.5l-10 -47q-3 -10 -11.5 -17.5t-17.5 -7.5h-26q-40 0 -64.5 -20.5t-29.5 -53.5q-5 -38 12 -129t10 -147q-10 -65 -53 -126t-107.5 -109t-127 -83 t-130.5 -63q-15 -5 -22 6z" />
<glyph unicode="~" horiz-adv-x="774" d="M334 1239q4 15 10 21q97 100 199 100q91 0 129 -41q4 -8 25 -17.5t48 -9.5q51 0 115 51h-2q20 15 35 15q16 0 33.5 -24.5t15.5 -33.5q-5 -15 -10 -20q-88 -98 -199 -98q-79 0 -135 45l-4 6q-26 18 -62 18q-65 0 -114 -55h2q-12 -12 -33 -12q-18 0 -37 18.5t-16 36.5z" />
<glyph unicode="&#xa1;" horiz-adv-x="385" d="M80 -324l184 951q3 12 13.5 21t23.5 9h41q14 0 22 -9t5 -21l-185 -951q-3 -12 -14.5 -21t-24.5 -9h-41q-12 0 -19.5 9t-4.5 21zM256 838l27 135q1 12 12.5 21.5t23.5 9.5h138q12 0 18 -9t4 -22l-26 -135q-3 -12 -14.5 -21.5t-24.5 -9.5h-138q-7 0 -12 7.5t-6 15.5z" />
<glyph unicode="&#xa2;" horiz-adv-x="980" d="M160 512q51 258 167 373t318 127l33 170q2 12 13 21t24 9h41q13 0 20.5 -9t5.5 -21l-32 -168q181 -9 248.5 -82t43.5 -205q-3 -13 -13 -22t-23 -9h-37q-12 0 -20 9.5t-5 21.5q19 99 -52.5 141.5t-209.5 42.5q-182 0 -280 -91t-140 -308q-43 -223 11 -323.5t243 -100.5 q134 0 227.5 48.5t114.5 148.5q1 13 12 22.5t25 9.5h37q12 0 19 -9t5 -23q-55 -275 -405 -295l-27 -131q-3 -14 -14.5 -23.5t-24.5 -9.5h-41q-13 0 -20 9.5t-4 23.5l26 131q-202 12 -269.5 135t-16.5 387z" />
<glyph unicode="&#xa3;" horiz-adv-x="1060" d="M37 31l8 37q3 13 14 22.5t23 9.5h100l113 580h-100q-12 0 -20 10t-5 23l8 37q1 12 13 21t24 9h100l43 226q33 173 162.5 272.5t298.5 99.5q190 0 264 -73.5t47 -212.5q-1 -12 -12.5 -21.5t-23.5 -9.5h-37q-13 0 -21 9.5t-6 21.5q19 99 -42.5 141.5t-186.5 42.5 q-132 0 -224 -76t-116 -194l-43 -226h456q12 0 19.5 -9t5.5 -21l-8 -37q-3 -13 -14 -23t-23 -10h-457l-112 -580h401q66 0 113.5 15t75.5 43t43.5 60t23.5 75q3 12 14 21.5t23 9.5h37q13 0 21 -9.5t5 -21.5q-27 -143 -115.5 -218t-254.5 -75h-609q-12 0 -20 9.5t-6 21.5z " />
<glyph unicode="&#xa4;" horiz-adv-x="1130" d="M152 580l6 41q3 14 14.5 23t24.5 9h45l4 31q2 9 6 28.5t6 28.5h-45q-13 0 -20.5 9.5t-4.5 21.5l9 43q2 12 12.5 21.5t23.5 9.5h50q74 276 214 400t404 124q207 0 286.5 -73.5t53.5 -211.5q-3 -13 -15 -22.5t-24 -9.5h-37q-12 0 -18.5 9.5t-3.5 22.5q19 99 -52.5 142 t-209.5 43q-110 0 -190 -25t-137.5 -80t-95 -131t-67.5 -188h598q13 0 20 -9t5 -22l-8 -41q-3 -14 -13.5 -23.5t-23.5 -9.5h-602q-13 -58 -13 -59l-4 -29h602q13 0 20 -8.5t5 -21.5l-8 -43q-3 -13 -13.5 -22t-23.5 -9h-600q-20 -152 -2 -255t96 -155.5t225 -52.5 q320 0 357 190q1 13 12.5 23t23.5 10h37q12 0 19.5 -9.5t5.5 -23.5q-14 -68 -43 -118.5t-82.5 -90.5t-141 -60.5t-208.5 -20.5q-186 0 -285 61.5t-124.5 187t1.5 314.5h-47q-13 0 -20 8.5t-4 22.5z" />
<glyph unicode="&#xa5;" horiz-adv-x="972" d="M186 578l9 36q3 13 13.5 22t22.5 9h265l-29 92h-219q-12 0 -19 10.5t-4 22.5l6 39q3 12 14 20.5t23 8.5h172l-137 487q-4 16 10 23l62 28q7 3 15 -1t9 -11l211 -719l477 719q3 7 12.5 11t14.5 1l53 -24q13 -8 4 -23l-327 -491h178q14 0 22 -10t5 -23l-9 -39 q-1 -12 -12.5 -20.5t-23.5 -8.5h-230l-59 -92h270q13 0 21 -10t6 -23l-8 -39q-3 -12 -14 -20t-23 -8h-320l-31 -47q-67 -99 -81 -181l-58 -286q-1 -12 -12 -21.5t-23 -9.5h-43q-13 0 -20.5 9.5t-5.5 21.5l57 286q8 44 32.5 95.5t45.5 81.5l20 30l-6 21h-311q-12 0 -19.5 9.5 t-5.5 23.5z" />
<glyph unicode="&#xa6;" horiz-adv-x="260" d="M29 -242l118 615q1 12 13 21t24 9h43q12 0 19.5 -9t5.5 -21l-119 -615q-3 -12 -14 -21t-23 -9h-43q-12 0 -19.5 9t-4.5 21zM213 713l119 614q3 12 14 21.5t23 9.5h43q12 0 19.5 -9.5t4.5 -21.5l-119 -614q-1 -12 -12.5 -21.5t-23.5 -9.5h-43q-12 0 -19.5 9.5t-5.5 21.5z " />
<glyph unicode="&#xa7;" horiz-adv-x="841" d="M115 276q1 13 13 23t24 10h41q13 0 20.5 -9.5t5.5 -23.5q-18 -87 29.5 -138.5t169.5 -51.5q136 0 205 55.5t84 141.5q9 46 -15 78.5t-68.5 51t-100.5 34.5t-111 36t-98.5 46.5t-64.5 73.5t-9 112q6 32 26 63t44 52.5t46.5 38.5t37.5 25l16 9q-121 71 -99 189 q25 125 122 202.5t233 77.5q175 0 237 -72.5t33 -216.5q-1 -13 -13 -22.5t-24 -9.5h-41q-13 0 -21 9t-6 23q21 100 -19 144.5t-167 44.5q-91 0 -152 -50t-77 -128q-7 -37 17.5 -66.5t69.5 -50t99.5 -40.5t108.5 -44t97 -53.5t64.5 -75.5t10.5 -105q-8 -44 -43.5 -90.5 t-67.5 -70.5l-31 -25q2 -1 5.5 -3.5t13.5 -11t17.5 -18.5t18.5 -26.5t15 -34.5t7 -43.5t-5 -52.5q-25 -134 -128 -215.5t-288 -81.5q-340 0 -282 290zM344 715q-9 -50 20 -79.5t85 -53.5q24 -10 99.5 -34.5t123.5 -43.5q88 64 106 155q10 52 -13.5 81t-78.5 53l-201 79 q-125 -72 -141 -157z" />
<glyph unicode="&#xa8;" horiz-adv-x="1052" d="M455 1192l24 135q3 12 14 21.5t23 9.5h137q7 0 13 -8t8 -16l2 -7l-25 -135q-3 -12 -14.5 -21.5t-24.5 -9.5h-137q-12 0 -17.5 9.5t-2.5 21.5zM852 1192l25 135q3 12 13.5 21.5t22.5 9.5h138q8 0 13.5 -8t7.5 -16l1 -7l-24 -135q-3 -12 -14 -21.5t-23 -9.5h-138 q-13 0 -19 9.5t-3 21.5z" />
<glyph unicode="&#xa9;" horiz-adv-x="1140" d="M143.5 435.5q6.5 104.5 34.5 246.5q35 179 82.5 301.5t123.5 212.5t185.5 132t261.5 42q211 0 309.5 -69.5t110 -222.5t-38.5 -396q-29 -154 -64 -262.5t-86 -194.5t-120.5 -136.5t-162.5 -76.5t-218 -26t-209.5 30t-132.5 84.5t-65 142.5t-10.5 192.5zM264 682 q-64 -333 6 -476t310 -143q126 0 215 32.5t154.5 108.5t108.5 190t77 288q28 141 34 239.5t-9.5 171.5t-59 114.5t-112 61t-171.5 19.5q-125 0 -213.5 -32.5t-154.5 -107.5t-109 -186.5t-76 -279.5zM451 680q35 184 106.5 264t220.5 80q105 0 144.5 -36.5t25.5 -106.5 q-4 -15 -18 -15h-19q-6 0 -9.5 4.5t-2.5 10.5q10 51 -26 72.5t-105 21.5q-123 0 -177 -67t-85 -228q-18 -98 -16 -164t41 -99.5t122 -33.5q159 0 178 94q2 6 7.5 11.5t11.5 5.5h18q6 0 11 -5.5t4 -11.5q-13 -70 -68 -107.5t-172 -37.5q-150 0 -189 81.5t-3 266.5z" />
<glyph unicode="&#xaa;" horiz-adv-x="585" d="M270 1014q16 85 70.5 123.5t179.5 38.5q113 0 156 -56l16 82q9 52 -29 81.5t-112 29.5q-70 0 -108 -17t-48 -67q-2 -6 -7 -11.5t-11 -5.5h-21q-6 0 -10.5 5.5t-3.5 11.5q14 69 64.5 101t154.5 32q102 0 149 -44t35 -116l-30 -158q-22 -106 -79.5 -150t-178.5 -44 q-128 0 -167 36.5t-20 127.5zM322 1014q-11 -59 21 -86t124 -27q91 0 133.5 28t56.5 95q9 50 -26.5 75t-120.5 25q-169 0 -188 -110z" />
<glyph unicode="&#xab;" horiz-adv-x="1038" d="M216 731.5q2 13.5 13 22.5l428 356q26 22 43 2l25 -31q7 -9 5 -22.5t-13 -22.5l-367 -305l248 -307q7 -9 5 -21.5t-13 -21.5l-37 -31q-11 -9 -23 -9t-20 9l-289 359q-7 9 -5 22.5zM626 731.5q2 13.5 13 22.5l428 356q26 22 43 2l25 -31q7 -9 4.5 -22.5t-13.5 -22.5 l-366 -305l248 -307q7 -9 4.5 -21.5t-13.5 -21.5l-36 -31q-11 -9 -23 -9t-20 9l-289 359q-7 9 -5 22.5z" />
<glyph unicode="&#xac;" horiz-adv-x="978" d="M221 752l4 22q3 12 14 21.5t23 9.5h754q13 0 21 -9.5t5 -21.5l-67 -350q-3 -12 -14 -21.5t-23 -9.5h-23q-12 0 -19.5 9.5t-4.5 21.5l57 297h-702q-12 0 -20 9.5t-5 21.5z" />
<glyph unicode="&#xad;" horiz-adv-x="724" d="M176 541l8 41q1 13 13 22.5t24 9.5h520q12 0 19.5 -9t5.5 -21l-8 -43q-3 -12 -14 -21.5t-23 -9.5h-520q-12 0 -20 9.5t-5 21.5z" />
<glyph unicode="&#xae;" horiz-adv-x="1142" d="M145.5 439.5q6.5 104.5 34.5 246.5q35 179 82 301.5t122.5 212.5t185 132t261.5 42q211 0 309.5 -69.5t110.5 -222.5t-37 -396q-30 -154 -65 -262t-86 -194.5t-120 -137t-162 -76.5t-218 -26t-209.5 30t-132.5 84.5t-65 142.5t-10.5 192.5zM266 686q-65 -333 4.5 -475.5 t309.5 -142.5q127 0 216 32.5t155 108t109 189.5t77 288q27 141 32.5 239.5t-10 171.5t-59 114.5t-112 61t-171.5 19.5q-125 0 -213.5 -32.5t-154 -107.5t-108.5 -186.5t-75 -279.5zM410 354l112 582q7 37 35.5 58.5t63.5 21.5h139q60 0 101.5 -16t58.5 -41.5t24 -56.5 t-2 -62q-35 -178 -219 -193l117 -143q16 -16 24 -46.5t2 -64.5l-8 -39q-3 -16 -18 -16h-21q-17 0 -14 14l10 41q9 44 -16 76l-150 178h-129l-57 -293q-3 -16 -19 -16h-22q-15 0 -12 16zM530 698h166q168 0 193 142q12 59 -25.5 92t-113.5 33h-136q-27 0 -39 -31z" />
<glyph unicode="&#xaf;" horiz-adv-x="614" d="M334 1194l4 18q1 13 13 23t24 10h348q12 0 20 -8t5 -20l-5 -19q-3 -14 -12.5 -24.5t-21.5 -10.5h-349q-12 0 -20.5 9.5t-5.5 21.5z" />
<glyph unicode="&#xb0;" horiz-adv-x="569" d="M297 1147q17 88 90.5 149.5t159.5 61.5q88 0 137.5 -61.5t32.5 -149.5q-17 -87 -90 -148t-160 -61t-137 61.5t-33 147.5zM356 1149q-13 -64 22.5 -109t98.5 -45q64 0 117.5 44.5t67.5 109.5q12 63 -24.5 107t-100.5 44q-63 0 -116 -44t-65 -107z" />
<glyph unicode="&#xb1;" horiz-adv-x="798" d="M135 307l8 43q1 12 13 21.5t24 9.5h582q12 0 19 -9.5t5 -21.5l-8 -43q-3 -12 -14 -21.5t-23 -9.5h-581q-12 0 -20 9.5t-5 21.5zM211 705l8 40q3 13 14 23t23 10h240l47 238q2 12 13 21.5t24 9.5h41q13 0 19.5 -9t4.5 -22l-47 -238h240q12 0 19.5 -9t4.5 -21l-8 -43 q-1 -12 -13 -21.5t-24 -9.5h-239l-31 -168q-3 -13 -13.5 -22t-23.5 -9h-41q-13 0 -20.5 9.5t-4.5 21.5l31 168h-239q-12 0 -19.5 9.5t-5.5 21.5z" />
<glyph unicode="&#xb4;" horiz-adv-x="1052" d="M553 1178q-1 12 7 24t20 17l350 120q11 5 21.5 -0.5t13.5 -17.5l4 -16q3 -12 -5 -24t-22 -17l-348 -121q-14 -5 -25 0.5t-12 17.5z" />
<glyph unicode="&#xb5;" horiz-adv-x="1052" d="M78 18q31 158 93.5 477.5t92.5 477.5q1 12 13 21.5t24 9.5h43q12 0 18.5 -9.5t4.5 -21.5l-101 -518q-25 -123 -12 -204t79.5 -121t194.5 -40q179 0 276.5 96.5t131.5 276.5l100 510q1 12 13 21.5t26 9.5h41q13 0 19 -9t4 -22l-101 -514q-47 -246 -176.5 -358.5 t-353.5 -112.5q-229 0 -309 108q-7 -23 -17 -84q-25 -125 88 -231q8 -9 5 -22.5t-15 -22.5l-43 -33q-11 -9 -23 -9t-20 9q-70 72 -92 147t-4 168z" />
<glyph unicode="&#xb6;" horiz-adv-x="659" d="M272 1100q11 57 34 104.5t61.5 87.5t99.5 63t139 23q241 0 187 -291l-205 -1054q-3 -14 -14.5 -23.5t-24.5 -9.5h-21q-13 0 -20 9.5t-4 23.5l164 852q-41 -18 -95 -27l-159 -825q-3 -13 -14 -23t-23 -10h-25q-12 0 -19.5 10t-4.5 23l159 821q-121 0 -179.5 64.5 t-35.5 181.5z" />
<glyph unicode="&#xb7;" horiz-adv-x="352" d="M193 610l26 133q3 12 14 21.5t23 9.5h137q8 0 13.5 -8t7.5 -16l2 -7l-27 -133q-1 -13 -13 -22.5t-24 -9.5h-137q-26 0 -22 32z" />
<glyph unicode="&#xb8;" horiz-adv-x="501" d="M59 -221q0 14 19 14h47q12 0 12 -14q-14 -70 49 -70q31 0 56.5 16.5t31.5 49.5q5 26 -0.5 45t-17.5 28t-26.5 20.5t-26.5 22.5t-17.5 33t0.5 53l11 50q3 16 20 16h47q15 0 12 -16l-8 -47q-4 -23 6 -39.5t26 -26t31.5 -27t23 -42t-0.5 -70.5q-12 -63 -64.5 -103.5 t-117.5 -40.5q-66 0 -97 38.5t-16 109.5z" />
<glyph unicode="&#xba;" horiz-adv-x="585" d="M287 1106q29 144 87.5 200t182.5 56q125 0 161 -55t7 -201q-29 -148 -88 -202t-180 -54q-120 0 -158 57.5t-12 198.5zM338 1106q-22 -117 5 -161t124 -44t140 44t65 161q24 118 -2 162.5t-123 44.5t-141.5 -44.5t-67.5 -162.5z" />
<glyph unicode="&#xbb;" horiz-adv-x="1058" d="M190 402.5q2 12.5 13 21.5l366 307l-247 305q-7 9 -5 22.5t13 22.5l35 31q11 9 24 8t21 -10l288 -356q7 -9 5 -22.5t-13 -22.5l-428 -359q-10 -9 -23 -9t-20 9l-24 31q-7 9 -5 21.5zM599 402.5q2 12.5 13 21.5l367 307l-248 305q-7 9 -5 22.5t13 22.5l35 31q11 9 24 8 t21 -10l289 -356q7 -9 5 -22.5t-13 -22.5l-428 -359q-10 -9 -23 -9t-20 9l-25 31q-7 9 -5 21.5z" />
<glyph unicode="&#xbf;" horiz-adv-x="940" d="M63.5 -108.5q-0.5 54.5 8.5 112.5q33 168 250 283q11 6 41 23.5t45 25.5q78 42 126 88.5t62 114.5l14 71q8 31 35 31h47q12 0 18 -9.5t3 -21.5l-13 -71q-20 -98 -83.5 -162.5t-163.5 -118.5q-18 -9 -50 -27.5t-38 -21.5q-78 -43 -127.5 -91t-61.5 -114 q-13 -51 -4.5 -100.5t32.5 -88.5t77.5 -63t130.5 -24q297 0 336 188q1 13 12.5 23t23.5 10h45q27 0 23 -33q-57 -289 -461 -289q-83 0 -146.5 21t-100 57t-58.5 84t-22.5 102.5zM606 838l27 135q1 12 13 21.5t24 9.5h137q12 0 18 -9t4 -22l-26 -135q-3 -12 -14.5 -21.5 t-24.5 -9.5h-137q-7 0 -12.5 7.5t-6.5 15.5z" />
<glyph unicode="&#xc0;" horiz-adv-x="1093" d="M40.5 22q-0.5 9 4.5 15l696 1304q2 5 10.5 12t16.5 7h74q6 0 10 -5.5t4 -11.5l199 -1308q1 -6 -3 -12.5t-10 -8.5l-65 -24q-7 -4 -15 -1t-8 11l-36 231h-666l-119 -229q-4 -5 -13 -10t-14 -2l-59 20q-6 3 -6.5 12zM305 332h600l-129 882zM667 1634.5q-3 12.5 3 24.5 l12 16q6 12 19 18t24 1l301 -121q12 -4 15 -16.5t-5 -24.5l-8 -16q-8 -12 -21.5 -17.5t-23.5 -1.5l-303 121q-10 4 -13 16.5z" />
<glyph unicode="&#xc1;" horiz-adv-x="1093" d="M40.5 22q-0.5 9 4.5 15l696 1304q2 5 10.5 12t16.5 7h74q6 0 10 -5.5t4 -11.5l199 -1308q1 -6 -3 -12.5t-10 -8.5l-65 -24q-7 -4 -15 -1t-8 11l-36 231h-666l-119 -229q-4 -5 -13 -10t-14 -2l-59 20q-6 3 -6.5 12zM305 332h600l-129 882zM645 1532q-1 12 7 24t20 17 l350 121q11 5 21.5 -1t13.5 -18l4 -16q3 -12 -5 -24t-22 -17l-348 -121q-13 -4 -24 1.5t-13 17.5z" />
<glyph unicode="&#xc2;" horiz-adv-x="1093" d="M40.5 22q-0.5 9 4.5 15l696 1304q2 5 10.5 12t16.5 7h74q6 0 10 -5.5t4 -11.5l199 -1308q1 -6 -3 -12.5t-10 -8.5l-65 -24q-7 -4 -15 -1t-8 11l-36 231h-666l-119 -229q-4 -5 -13 -10t-14 -2l-59 20q-6 3 -6.5 12zM305 332h600l-129 882zM635 1522q-7 11 4 22l229 191 q12 11 23 0l156 -193q10 -10 -5 -22l-43 -35q-15 -11 -22 0l-117 145l-172 -145q-15 -11 -22 0z" />
<glyph unicode="&#xc3;" horiz-adv-x="1093" d="M40.5 22q0.5 -9 6.5 -12l59 -20q5 -3 14 2t13 10l119 229h666l36 -231q0 -8 8 -11t15 1l65 24q6 2 10 8.5t3 12.5l-199 1308q0 6 -4 11.5t-10 5.5h-74q-8 0 -16.5 -7t-10.5 -12l-696 -1304q-5 -6 -4.5 -15zM305 332l471 882l129 -882h-600zM600 1556q0 9 8 17 q81 84 164 84q81 0 109 -35q4 -7 22 -15t41 -8q40 0 94 43h-2q13 13 31 13q12 0 26.5 -20t12.5 -27q0 -7 -8 -19q-76 -82 -166 -82q-67 0 -111 39l-6 4q-22 17 -49 17q-55 0 -96 -47h2q-11 -11 -29 -11q-14 0 -30 16.5t-13 30.5z" />
<glyph unicode="&#xc4;" horiz-adv-x="1093" d="M40.5 22q-0.5 9 4.5 15l696 1304q2 5 10.5 12t16.5 7h74q6 0 10 -5.5t4 -11.5l199 -1308q1 -6 -3 -12.5t-10 -8.5l-65 -24q-7 -4 -15 -1t-8 11l-36 231h-666l-119 -229q-4 -5 -13 -10t-14 -2l-59 20q-6 3 -6.5 12zM305 332h600l-129 882zM549 1546l24 135q3 12 14 21.5 t23 9.5h138q7 0 12.5 -8t7.5 -16l2 -7l-25 -135q-3 -12 -14 -21t-24 -9h-138q-12 0 -17.5 9t-2.5 21zM946 1546l25 135q3 12 14 21.5t23 9.5h137q8 0 13.5 -8t7.5 -16l1 -7l-24 -135q-3 -12 -14 -21t-23 -9h-137q-13 0 -19.5 9t-3.5 21z" />
<glyph unicode="&#xc5;" horiz-adv-x="1093" d="M40.5 22q-0.5 9 4.5 15l668 1253q-16 7 -13 27l29 137q2 12 13 21.5t24 9.5h135q13 0 22 -9.5t7 -21.5l-29 -137q-2 -12 -13 -21.5t-24 -9.5l191 -1251q1 -6 -3 -12.5t-10 -8.5l-65 -24q-7 -4 -15 -1t-8 11l-36 231h-666l-119 -229q-4 -5 -13 -10t-14 -2l-59 20 q-6 3 -6.5 12zM305 332h600l-129 882zM786 1376q-1 -6 3 -11t10 -5h24q13 0 17 16l4 19q3 16 -15 16h-20q-15 0 -18 -16z" />
<glyph unicode="&#xc6;" horiz-adv-x="1658" d="M7 27q0 13 9 24l1078 1213q118 112 350 112q209 0 289 -74t53 -212q-3 -13 -14 -23t-23 -10h-37q-14 0 -21.5 10t-4.5 23q19 99 -53 141.5t-210 42.5q-134 0 -222 -55.5t-109 -163.5q-21 -102 39.5 -159.5t209.5 -57.5h117q12 0 20 -9.5t5 -21.5l-6 -37q-3 -12 -14 -21.5 t-23 -9.5h-117q-193 0 -277.5 -71.5t-117.5 -245.5q-17 -70 -11 -131.5t32 -107t88.5 -71.5t158.5 -26q318 0 358 190q1 13 13 23t24 10h37q13 0 20 -9.5t5 -23.5q-14 -68 -43 -118.5t-82.5 -90.5t-141.5 -60.5t-210 -20.5q-176 0 -262.5 63.5t-102.5 181.5h-508l-211 -241 q-10 -10 -23 -12t-22 6l-31 22q-9 8 -9 21zM393 330h418q4 59 12 92q29 155 111.5 255.5t228.5 110.5q-113 24 -152 75t-32 128z" />
<glyph unicode="&#xc7;" horiz-adv-x="1052" d="M149 318q-7 148 35 364q36 184 84 307.5t124.5 212t186 128.5t263.5 40q208 0 286.5 -73.5t51.5 -213.5q-1 -12 -13 -21t-24 -9h-37q-13 0 -20 8.5t-5 21.5q20 99 -52 143t-208 44q-103 0 -180.5 -24t-132 -67.5t-95.5 -118.5t-68 -163t-52 -215q-38 -196 -32.5 -328.5 t85 -200t246.5 -67.5q316 0 356 190q1 13 13 23t24 10h37q12 0 19.5 -9.5t5.5 -23.5q-14 -68 -43.5 -118.5t-83.5 -90.5t-141 -60.5t-208 -20.5h-12l-4 -25q-4 -22 6 -38t26.5 -25.5t32.5 -27t23.5 -42t-0.5 -70.5q-13 -63 -66.5 -104t-117.5 -41q-65 0 -95.5 38.5 t-17.5 108.5q2 6 7.5 11.5t11.5 5.5h47q6 0 10.5 -5.5t3.5 -11.5q-14 -67 47 -67q31 0 57 16t33 49q5 26 -1 45t-18.5 28.5t-26.5 20.5t-25.5 22.5t-16 33.5t1.5 53l6 29q-166 16 -246.5 98t-87.5 230z" />
<glyph unicode="&#xc8;" horiz-adv-x="1019" d="M142.5 279q1.5 66 15.5 143q14 74 39 134.5t64.5 112.5t100 83t136.5 36q-58 13 -97.5 33.5t-59 44t-26 57t-4.5 62.5t11 70q62 321 454 321q209 0 289 -74t53 -212q-3 -14 -13.5 -23.5t-23.5 -9.5h-37q-12 0 -19.5 10t-4.5 23q19 99 -53.5 141.5t-210.5 42.5 q-133 0 -221 -56t-109 -163q-21 -102 40 -159.5t210 -57.5h115q12 0 19.5 -9.5t4.5 -21.5l-6 -37q-3 -12 -14 -21.5t-23 -9.5h-115q-196 -1 -280 -72t-117 -245q-10 -57 -12 -107t14.5 -92.5t47 -72.5t86.5 -47t134 -17q317 0 357 190q1 13 13 23t26 10h37q12 0 19 -9.5 t5 -23.5q-14 -68 -43.5 -118.5t-83 -90.5t-141.5 -60.5t-209 -20.5q-99 0 -170.5 21t-113 59.5t-63.5 92.5t-20.5 120zM632 1634.5q-3 12.5 3 24.5l12 16q6 12 19 18t24 1l301 -121q12 -4 15 -16.5t-5 -24.5l-8 -16q-8 -12 -21.5 -17.5t-23.5 -1.5l-303 121q-10 4 -13 16.5z " />
<glyph unicode="&#xc9;" horiz-adv-x="1019" d="M142.5 279q1.5 66 15.5 143q14 74 39 134.5t64.5 112.5t100 83t136.5 36q-58 13 -97.5 33.5t-59 44t-26 57t-4.5 62.5t11 70q62 321 454 321q209 0 289 -74t53 -212q-3 -14 -13.5 -23.5t-23.5 -9.5h-37q-12 0 -19.5 10t-4.5 23q19 99 -53.5 141.5t-210.5 42.5 q-133 0 -221 -56t-109 -163q-21 -102 40 -159.5t210 -57.5h115q12 0 19.5 -9.5t4.5 -21.5l-6 -37q-3 -12 -14 -21.5t-23 -9.5h-115q-196 -1 -280 -72t-117 -245q-10 -57 -12 -107t14.5 -92.5t47 -72.5t86.5 -47t134 -17q317 0 357 190q1 13 13 23t26 10h37q12 0 19 -9.5 t5 -23.5q-14 -68 -43.5 -118.5t-83 -90.5t-141.5 -60.5t-209 -20.5q-99 0 -170.5 21t-113 59.5t-63.5 92.5t-20.5 120zM610 1532q-1 12 7 24t20 17l350 121q11 5 21.5 -1t13.5 -18l4 -16q3 -12 -5 -24t-22 -17l-348 -121q-13 -4 -24 1.5t-13 17.5z" />
<glyph unicode="&#xca;" horiz-adv-x="1019" d="M142.5 279q1.5 66 15.5 143q14 74 39 134.5t64.5 112.5t100 83t136.5 36q-58 13 -97.5 33.5t-59 44t-26 57t-4.5 62.5t11 70q62 321 454 321q209 0 289 -74t53 -212q-3 -14 -13.5 -23.5t-23.5 -9.5h-37q-12 0 -19.5 10t-4.5 23q19 99 -53.5 141.5t-210.5 42.5 q-133 0 -221 -56t-109 -163q-21 -102 40 -159.5t210 -57.5h115q12 0 19.5 -9.5t4.5 -21.5l-6 -37q-3 -12 -14 -21.5t-23 -9.5h-115q-196 -1 -280 -72t-117 -245q-10 -57 -12 -107t14.5 -92.5t47 -72.5t86.5 -47t134 -17q317 0 357 190q1 13 13 23t26 10h37q12 0 19 -9.5 t5 -23.5q-14 -68 -43.5 -118.5t-83 -90.5t-141.5 -60.5t-209 -20.5q-99 0 -170.5 21t-113 59.5t-63.5 92.5t-20.5 120zM618 1522q-7 10 5 22l229 191q11 11 22 0l156 -193q11 -11 -4 -22l-43 -35q-15 -11 -22 0l-117 145l-172 -145q-15 -11 -23 0z" />
<glyph unicode="&#xcb;" horiz-adv-x="1019" d="M142.5 279q1.5 66 15.5 143q14 74 39 134.5t64.5 112.5t100 83t136.5 36q-58 13 -97.5 33.5t-59 44t-26 57t-4.5 62.5t11 70q62 321 454 321q209 0 289 -74t53 -212q-3 -14 -13.5 -23.5t-23.5 -9.5h-37q-12 0 -19.5 10t-4.5 23q19 99 -53.5 141.5t-210.5 42.5 q-133 0 -221 -56t-109 -163q-21 -102 40 -159.5t210 -57.5h115q12 0 19.5 -9.5t4.5 -21.5l-6 -37q-3 -12 -14 -21.5t-23 -9.5h-115q-196 -1 -280 -72t-117 -245q-10 -57 -12 -107t14.5 -92.5t47 -72.5t86.5 -47t134 -17q317 0 357 190q1 13 13 23t26 10h37q12 0 19 -9.5 t5 -23.5q-14 -68 -43.5 -118.5t-83 -90.5t-141.5 -60.5t-209 -20.5q-99 0 -170.5 21t-113 59.5t-63.5 92.5t-20.5 120zM512 1546l25 135q3 12 13.5 21.5t22.5 9.5h138q7 0 12.5 -8t7.5 -16l2 -7l-24 -135q-3 -12 -14.5 -21t-24.5 -9h-138q-12 0 -17.5 9t-2.5 21zM909 1546 l25 135q3 12 14 21.5t23 9.5h137q8 0 13.5 -8t6.5 -16l2 -7l-24 -135q-3 -12 -14 -21t-23 -9h-137q-13 0 -19.5 9t-3.5 21z" />
<glyph unicode="&#xcc;" horiz-adv-x="733" d="M51 33l6 37q3 12 14 20t23 8h232l225 1159h-232q-12 0 -19.5 9.5t-4.5 21.5l6 37q3 13 14 23t23 10h575q13 0 20.5 -10.5t4.5 -24.5l-6 -37q-3 -12 -13.5 -20.5t-23.5 -8.5h-238l-225 -1159h238q12 0 19 -9t5 -21l-8 -37q-1 -13 -11 -22t-24 -9h-575q-12 0 -20 10t-5 23z M491 1634.5q-3 12.5 3 24.5l12 16q6 12 19 18t24 1l301 -121q12 -4 15 -16.5t-5 -24.5l-8 -16q-8 -12 -21.5 -17.5t-23.5 -1.5l-303 121q-10 4 -13 16.5z" />
<glyph unicode="&#xcd;" horiz-adv-x="733" d="M51 33l6 37q3 12 14 20t23 8h232l225 1159h-232q-12 0 -19.5 9.5t-4.5 21.5l6 37q3 13 14 23t23 10h575q13 0 20.5 -10.5t4.5 -24.5l-6 -37q-3 -12 -13.5 -20.5t-23.5 -8.5h-238l-225 -1159h238q12 0 19 -9t5 -21l-8 -37q-1 -13 -11 -22t-24 -9h-575q-12 0 -20 10t-5 23z M469 1532q-1 12 7 24t20 17l350 121q11 5 21.5 -1t13.5 -18l4 -16q3 -12 -5 -24t-22 -17l-348 -121q-13 -4 -24 1.5t-13 17.5z" />
<glyph unicode="&#xce;" horiz-adv-x="733" d="M51 33l6 37q3 12 14 20t23 8h232l225 1159h-232q-12 0 -19.5 9.5t-4.5 21.5l6 37q3 13 14 23t23 10h575q13 0 20.5 -10.5t4.5 -24.5l-6 -37q-3 -12 -13.5 -20.5t-23.5 -8.5h-238l-225 -1159h238q12 0 19 -9t5 -21l-8 -37q-1 -13 -11 -22t-24 -9h-575q-12 0 -20 10t-5 23z M455 1522q-7 11 4 22l229 191q12 11 23 0l155 -193q11 -11 -4 -22l-43 -35q-15 -11 -22 0l-117 145l-172 -145q-15 -11 -23 0z" />
<glyph unicode="&#xcf;" horiz-adv-x="733" d="M51 33l6 37q3 12 14 20t23 8h232l225 1159h-232q-12 0 -19.5 9.5t-4.5 21.5l6 37q3 13 14 23t23 10h575q13 0 20.5 -10.5t4.5 -24.5l-6 -37q-3 -12 -13.5 -20.5t-23.5 -8.5h-238l-225 -1159h238q12 0 19 -9t5 -21l-8 -37q-1 -13 -11 -22t-24 -9h-575q-12 0 -20 10t-5 23z M371 1546l24 135q3 12 14 21.5t23 9.5h137q7 0 13 -8t8 -16l2 -7l-25 -135q-3 -12 -14.5 -21t-24.5 -9h-137q-12 0 -17.5 9t-2.5 21zM768 1546l25 135q3 12 13.5 21.5t22.5 9.5h138q8 0 13.5 -8t7.5 -16l1 -7l-24 -135q-3 -12 -14 -21t-23 -9h-137q-13 0 -19.5 9t-3.5 21z " />
<glyph unicode="&#xd0;" horiz-adv-x="1153" d="M158 664l8 38q3 15 14 25t23 10h78l90 459q12 66 71 114t127 48h254q204 0 304.5 -70.5t116.5 -220.5t-32 -383q-28 -147 -62.5 -253.5t-86.5 -194t-121 -140.5t-164.5 -81.5t-220.5 -28.5q-97 0 -167 15.5t-111.5 44.5t-63.5 70t-23.5 93t9.5 113l61 311h-78 q-12 0 -20 9.5t-6 21.5zM303 322q-24 -120 40 -178t235 -58q101 0 178 25.5t132 71.5t96 122t68.5 164.5t51.5 212.5q41 199 33.5 326t-86 186t-248.5 59h-252q-29 0 -51 -18t-27 -43l-90 -455h203q12 0 20 -9t6 -21l-10 -43q-1 -12 -12 -21.5t-23 -9.5h-202z" />
<glyph unicode="&#xd1;" horiz-adv-x="1036" d="M80 31q-2 -12 5 -21.5t19 -9.5h43q12 0 23 9.5t12 21.5l221 1138l414 -1151q4 -18 25 -18h78q12 0 22 9.5t12 21.5l252 1296q3 12 -3.5 21.5t-18.5 9.5h-43q-12 0 -23 -9.5t-14 -21.5l-223 -1151l-410 1163q-4 19 -25 19h-77q-12 0 -23 -9.5t-14 -21.5zM571 1556 q0 8 9 17q81 84 163 84q81 0 109 -35q4 -7 22 -15t41 -8q41 0 95 43h-2q13 13 30 13q12 0 26.5 -20t12.5 -27q0 -7 -8 -19q-76 -82 -166 -82q-66 0 -110 39l-7 4q-22 17 -49 17q-55 0 -96 -47h2q-11 -11 -29 -11q-14 0 -30 16.5t-13 30.5z" />
<glyph unicode="&#xd2;" horiz-adv-x="1150" d="M153.5 296.5q-11.5 155.5 34.5 389.5q35 184 83 307.5t123.5 212t184.5 128.5t261 40q212 0 309 -66.5t111.5 -219.5t-37.5 -402q-26 -132 -54.5 -230t-68 -178.5t-87.5 -133.5t-113.5 -89.5t-146 -52.5t-184.5 -16q-204 0 -304 77.5t-111.5 233zM256.5 342 q5.5 -136 84 -203t245.5 -67q87 0 154.5 15.5t120 50t91 81.5t69.5 119.5t53 153t44 192.5q44 214 38.5 348t-83 194t-250.5 60q-128 0 -216.5 -35t-149 -114t-97.5 -184t-69 -269q-40 -206 -34.5 -342zM695.5 1634.5q-3.5 12.5 2.5 24.5l13 16q6 12 19 18t24 1l301 -121 q12 -4 15 -16.5t-5 -24.5l-8 -16q-8 -12 -21.5 -17.5t-23.5 -1.5l-303 121q-10 4 -13.5 16.5z" />
<glyph unicode="&#xd3;" horiz-adv-x="1150" d="M153.5 296.5q-11.5 155.5 34.5 389.5q35 184 83 307.5t123.5 212t184.5 128.5t261 40q212 0 309 -66.5t111.5 -219.5t-37.5 -402q-26 -132 -54.5 -230t-68 -178.5t-87.5 -133.5t-113.5 -89.5t-146 -52.5t-184.5 -16q-204 0 -304 77.5t-111.5 233zM256.5 342 q5.5 -136 84 -203t245.5 -67q87 0 154.5 15.5t120 50t91 81.5t69.5 119.5t53 153t44 192.5q44 214 38.5 348t-83 194t-250.5 60q-128 0 -216.5 -35t-149 -114t-97.5 -184t-69 -269q-40 -206 -34.5 -342zM674 1532q-2 12 6 24.5t20 16.5l351 121q10 4 20.5 -1.5t13.5 -17.5 l5 -16q3 -12 -5 -24t-22 -17l-348 -121q-13 -4 -24 1.5t-13 17.5z" />
<glyph unicode="&#xd4;" horiz-adv-x="1150" d="M153.5 296.5q-11.5 155.5 34.5 389.5q35 184 83 307.5t123.5 212t184.5 128.5t261 40q212 0 309 -66.5t111.5 -219.5t-37.5 -402q-26 -132 -54.5 -230t-68 -178.5t-87.5 -133.5t-113.5 -89.5t-146 -52.5t-184.5 -16q-204 0 -304 77.5t-111.5 233zM256.5 342 q5.5 -136 84 -203t245.5 -67q87 0 154.5 15.5t120 50t91 81.5t69.5 119.5t53 153t44 192.5q44 214 38.5 348t-83 194t-250.5 60q-128 0 -216.5 -35t-149 -114t-97.5 -184t-69 -269q-40 -206 -34.5 -342zM664 1522q-7 11 4 22l229 191q11 11 23 0l155 -193q11 -11 -4 -22 l-43 -35q-15 -11 -22 0l-117 145l-172 -145q-15 -11 -23 0z" />
<glyph unicode="&#xd5;" horiz-adv-x="1150" d="M153.5 296.5q11.5 -155.5 111.5 -233t304 -77.5q104 0 184.5 16t146 52.5t113.5 89.5t87.5 133.5t68 178.5t54.5 230q52 249 37.5 402t-111.5 219.5t-309 66.5q-152 0 -261 -40t-184.5 -128.5t-123.5 -212t-83 -307.5q-46 -234 -34.5 -389.5zM256.5 342 q-5.5 136 34.5 342q32 164 69 269t97.5 184t149 114t216.5 35q173 0 250.5 -60t83 -194t-38.5 -348q-22 -112 -44 -192.5t-53 -153t-69.5 -119.5t-91 -81.5t-120 -50t-154.5 -15.5q-167 0 -245.5 67t-84 203zM629 1556q0 9 8 17q81 84 164 84q80 0 108 -35q4 -7 22.5 -15 t41.5 -8q40 0 94 43h-2q13 13 31 13q12 0 26.5 -20t12.5 -27q0 -6 -9 -19q-76 -82 -165 -82q-67 0 -111 39l-6 4q-22 17 -49 17q-56 0 -97 -47h2q-11 -11 -28 -11q-14 0 -30 16.5t-13 30.5z" />
<glyph unicode="&#xd6;" horiz-adv-x="1150" d="M153.5 296.5q-11.5 155.5 34.5 389.5q35 184 83 307.5t123.5 212t184.5 128.5t261 40q212 0 309 -66.5t111.5 -219.5t-37.5 -402q-26 -132 -54.5 -230t-68 -178.5t-87.5 -133.5t-113.5 -89.5t-146 -52.5t-184.5 -16q-204 0 -304 77.5t-111.5 233zM256.5 342 q5.5 -136 84 -203t245.5 -67q87 0 154.5 15.5t120 50t91 81.5t69.5 119.5t53 153t44 192.5q44 214 38.5 348t-83 194t-250.5 60q-128 0 -216.5 -35t-149 -114t-97.5 -184t-69 -269q-40 -206 -34.5 -342zM578 1546l24 135q3 12 14 21.5t23 9.5h137q7 0 13 -8t8 -16l2 -7 l-25 -135q-3 -12 -14.5 -21t-24.5 -9h-137q-12 0 -17.5 9t-2.5 21zM975 1546l24 135q3 12 14 21.5t23 9.5h138q8 0 13.5 -8t6.5 -16l2 -7l-25 -135q-3 -12 -13.5 -21t-22.5 -9h-138q-13 0 -19 9t-3 21z" />
<glyph unicode="&#xd7;" horiz-adv-x="792" d="M165 327.5q2 13.5 13 22.5l254 213l-170 211q-8 9 -6 21.5t14 21.5l35 29q11 10 23 9.5t20 -9.5l170 -211l254 213q10 9 23.5 9t19.5 -9l25 -31q7 -8 4.5 -21t-13.5 -22l-253 -213l172 -211q16 -27 -11 -45l-32 -29q-24 -21 -45 0l-170 213l-254 -213q-10 -9 -23.5 -9 t-19.5 9l-25 29q-7 9 -5 22.5z" />
<glyph unicode="&#xd8;" horiz-adv-x="1146" d="M59.5 -13q-0.5 13 8.5 23l120 148q-73 161 0 528q35 184 83 307.5t123.5 212t184.5 128.5t261 40q205 0 301 -61l63 78q21 27 45 10l15 -10q12 -7 12.5 -20t-10.5 -23l-70 -84q63 -75 67 -220t-40 -358q-26 -132 -54.5 -230t-68 -178.5t-87.5 -133.5t-113.5 -89.5 t-146 -52.5t-184.5 -16q-239 0 -336 106l-102 -125q-9 -12 -23 -15t-24 5l-14 10q-10 7 -10.5 20zM270 256l799 973q-75 57 -246 57q-128 0 -216.5 -35t-149 -114t-97.5 -184t-69 -269q-56 -295 -21 -428zM305 178q75 -106 281 -106q87 0 154.5 15.5t120 50t91 81.5 t69.5 119.5t53 153t44 192.5q25 123 34.5 210t3 158.5t-33.5 118.5z" />
<glyph unicode="&#xd9;" horiz-adv-x="1030" d="M172 494l162 833q3 12 14 21.5t23 9.5h43q13 0 20 -9.5t4 -21.5l-164 -833q-27 -136 -19.5 -226t74 -135t203.5 -45q71 0 127.5 12.5t97.5 39t71.5 59t52.5 80.5t36 95.5t27 110.5l162 842q3 12 14.5 21.5t24.5 9.5h43q12 0 18.5 -9.5t3.5 -21.5l-163 -840 q-52 -268 -176.5 -383.5t-358.5 -115.5q-244 0 -319 112.5t-21 393.5zM636 1634.5q-3 12.5 3 24.5l12 16q6 12 19 18t24 1l301 -121q12 -4 15.5 -16.5t-4.5 -24.5l-9 -16q-8 -12 -21.5 -17.5t-23.5 -1.5l-303 121q-10 4 -13 16.5z" />
<glyph unicode="&#xda;" horiz-adv-x="1030" d="M172 494l162 833q3 12 14 21.5t23 9.5h43q13 0 20 -9.5t4 -21.5l-164 -833q-27 -136 -19.5 -226t74 -135t203.5 -45q71 0 127.5 12.5t97.5 39t71.5 59t52.5 80.5t36 95.5t27 110.5l162 842q3 12 14.5 21.5t24.5 9.5h43q12 0 18.5 -9.5t3.5 -21.5l-163 -840 q-52 -268 -176.5 -383.5t-358.5 -115.5q-244 0 -319 112.5t-21 393.5zM614 1532q-1 12 7 24t20 17l350 121q11 5 21.5 -1t13.5 -18l4 -16q3 -12 -5 -24.5t-21 -16.5l-349 -121q-13 -4 -24 1.5t-13 17.5z" />
<glyph unicode="&#xdb;" horiz-adv-x="1030" d="M172 494l162 833q3 12 14 21.5t23 9.5h43q13 0 20 -9.5t4 -21.5l-164 -833q-27 -136 -19.5 -226t74 -135t203.5 -45q71 0 127.5 12.5t97.5 39t71.5 59t52.5 80.5t36 95.5t27 110.5l162 842q3 12 14.5 21.5t24.5 9.5h43q12 0 18.5 -9.5t3.5 -21.5l-163 -840 q-52 -268 -176.5 -383.5t-358.5 -115.5q-244 0 -319 112.5t-21 393.5zM604 1522q-7 11 4 22l230 191q11 11 22 0l156 -193q11 -11 -4 -22l-43 -35q-15 -11 -23 0l-117 145l-172 -145q-15 -11 -22 0z" />
<glyph unicode="&#xdc;" horiz-adv-x="1030" d="M172 494l162 833q3 12 14 21.5t23 9.5h43q13 0 20 -9.5t4 -21.5l-164 -833q-27 -136 -19.5 -226t74 -135t203.5 -45q71 0 127.5 12.5t97.5 39t71.5 59t52.5 80.5t36 95.5t27 110.5l162 842q3 12 14.5 21.5t24.5 9.5h43q12 0 18.5 -9.5t3.5 -21.5l-163 -840 q-52 -268 -176.5 -383.5t-358.5 -115.5q-244 0 -319 112.5t-21 393.5zM518 1546l25 135q3 12 14 21.5t23 9.5h137q7 0 12.5 -8t7.5 -16l2 -7l-24 -135q-3 -12 -14.5 -21t-24.5 -9h-137q-12 0 -18 9t-3 21zM915 1546l25 135q3 12 14 21.5t23 9.5h137q8 0 14 -8t8 -16l1 -7 l-25 -135q-3 -12 -14 -21t-23 -9h-137q-13 0 -19.5 9t-3.5 21z" />
<glyph unicode="&#xdd;" horiz-adv-x="964" d="M293 1325q-4 16 10 23l62 28q7 3 15 -1t9 -11l211 -719l477 719q3 7 12.5 11t14.5 1l53 -24q13 -8 4 -23l-555 -831q-68 -99 -82 -181l-57 -286q-1 -12 -12 -21.5t-23 -9.5h-43q-13 0 -21 9.5t-6 21.5l58 286q9 44 33.5 95.5t44.5 81.5l20 30zM582 1532q-2 12 6 24.5 t20 16.5l350 121q11 5 21.5 -1t13.5 -18l4 -16q3 -12 -5 -24.5t-21 -16.5l-348 -121q-13 -4 -24 1.5t-13 17.5z" />
<glyph unicode="&#xde;" horiz-adv-x="1011" d="M80 31l252 1296q3 12 13 21.5t22 9.5h43q12 0 19.5 -9.5t4.5 -21.5l-41 -211h330q218 0 309.5 -107.5t46.5 -336.5q-84 -445 -528 -445h-330l-39 -196q-1 -12 -12 -21.5t-23 -9.5h-43q-12 0 -19 9.5t-5 21.5zM242 328h329q167 0 268 83.5t134 260.5q35 177 -33 260.5 t-235 83.5h-330z" />
<glyph unicode="&#xdf;" horiz-adv-x="1052" d="M55 -102l209 1079q74 381 490 381q217 0 303 -85t57 -237q-7 -38 -27 -78.5t-52.5 -82t-83.5 -71t-111 -36.5q82 -5 132.5 -53t62.5 -123t-3 -170q-19 -97 -55 -170.5t-96.5 -132t-153 -89t-215.5 -30.5h-217q-12 0 -20.5 9.5t-6.5 21.5l8 35q1 13 13 22.5t24 9.5h217 q97 0 169 23.5t117.5 68.5t72 101t41.5 131q28 147 -32 221t-216 74h-229q-13 0 -21 9.5t-6 21.5l8 36q3 14 13.5 23.5t23.5 9.5h229q121 0 206.5 66.5t101.5 152.5q22 111 -44.5 164t-230.5 53q-148 0 -243.5 -68t-122.5 -208l-209 -1079q-3 -13 -14 -23t-23 -10h-41 q-12 0 -20 10t-5 23z" />
<glyph unicode="&#xe0;" d="M123 123.5q-26 72.5 0 191.5q22 114 73.5 182.5t155.5 105t273 36.5q127 0 199 -27t114 -82l31 164q20 102 -56.5 159.5t-224.5 57.5q-69 0 -116 -6t-90.5 -22.5t-69.5 -50.5t-37 -87q-1 -13 -13 -21.5t-26 -8.5h-41q-12 0 -20 8.5t-7 21.5q27 137 130.5 203t310.5 66 q203 0 297 -89t65 -231l-61 -317q-42 -214 -155.5 -301.5t-356.5 -87.5q-174 0 -261.5 31.5t-113.5 104zM225 315q-23 -116 42.5 -170.5t250.5 -54.5q184 0 270 56.5t111 189.5q21 100 -51.5 150.5t-243.5 50.5q-335 0 -379 -222zM558 1280.5q-3 12.5 3 24.5l12 16 q6 12 19 17.5t24 0.5l302 -120q12 -4 15 -16.5t-5 -24.5l-8 -17q-7 -12 -21 -17.5t-25 -0.5l-303 121q-10 4 -13 16.5z" />
<glyph unicode="&#xe1;" d="M123 123.5q-26 72.5 0 191.5q22 114 73.5 182.5t155.5 105t273 36.5q127 0 199 -27t114 -82l31 164q20 102 -56.5 159.5t-224.5 57.5q-69 0 -116 -6t-90.5 -22.5t-69.5 -50.5t-37 -87q-1 -13 -13 -21.5t-26 -8.5h-41q-12 0 -20 8.5t-7 21.5q27 137 130.5 203t310.5 66 q203 0 297 -89t65 -231l-61 -317q-42 -214 -155.5 -301.5t-356.5 -87.5q-174 0 -261.5 31.5t-113.5 104zM225 315q-23 -116 42.5 -170.5t250.5 -54.5q184 0 270 56.5t111 189.5q21 100 -51.5 150.5t-243.5 50.5q-335 0 -379 -222zM537 1178q-2 12 6 24.5t20 16.5l350 120 q11 5 21.5 -0.5t13.5 -17.5l4 -16q3 -12 -5 -24.5t-21 -16.5l-348 -121q-14 -5 -25 0.5t-12 17.5z" />
<glyph unicode="&#xe2;" d="M123 123.5q-26 72.5 0 191.5q22 114 73.5 182.5t155.5 105t273 36.5q127 0 199 -27t114 -82l31 164q20 102 -56.5 159.5t-224.5 57.5q-69 0 -116 -6t-90.5 -22.5t-69.5 -50.5t-37 -87q-1 -13 -13 -21.5t-26 -8.5h-41q-12 0 -20 8.5t-7 21.5q27 137 130.5 203t310.5 66 q203 0 297 -89t65 -231l-61 -317q-42 -214 -155.5 -301.5t-356.5 -87.5q-174 0 -261.5 31.5t-113.5 104zM225 315q-23 -116 42.5 -170.5t250.5 -54.5q184 0 270 56.5t111 189.5q21 100 -51.5 150.5t-243.5 50.5q-335 0 -379 -222zM526 1167q-8 11 4 23l230 190q11 11 22 0 l156 -192q11 -11 -4 -23l-43 -35q-6 -4 -13 -4t-10 4l-116 146l-172 -146q-6 -4 -13 -4t-10 4z" />
<glyph unicode="&#xe3;" d="M123 123.5q26 -72.5 113.5 -104t261.5 -31.5q243 0 356.5 87.5t155.5 301.5l61 317q29 142 -65 231t-297 89q-207 0 -310.5 -66t-130.5 -203q-1 -13 7 -21.5t20 -8.5h41q14 0 26 8.5t13 21.5q11 53 37 87t69.5 50.5t90.5 22.5t116 6q148 0 224.5 -57.5t56.5 -159.5 l-31 -164q-42 55 -114 82t-199 27q-169 0 -273 -36.5t-155.5 -105t-73.5 -182.5q-26 -119 0 -191.5zM225 315q44 222 379 222q171 0 243.5 -50.5t51.5 -150.5q-25 -133 -111 -189.5t-270 -56.5q-185 0 -250.5 54.5t-42.5 170.5zM489 1202q0 8 9 17q81 84 164 84 q80 0 108 -35q4 -7 22.5 -15t41.5 -8q40 0 94 43h-2q12 12 30 12q12 0 26.5 -20t12.5 -27q0 -6 -8 -18q-76 -82 -166 -82q-66 0 -110 39l-6 4q-21 16 -50 16q-55 0 -96 -47h2q-10 -10 -29 -10q-14 0 -30 16.5t-13 30.5z" />
<glyph unicode="&#xe4;" d="M123 123.5q-26 72.5 0 191.5q22 114 73.5 182.5t155.5 105t273 36.5q127 0 199 -27t114 -82l31 164q20 102 -56.5 159.5t-224.5 57.5q-69 0 -116 -6t-90.5 -22.5t-69.5 -50.5t-37 -87q-1 -13 -13 -21.5t-26 -8.5h-41q-12 0 -20 8.5t-7 21.5q27 137 130.5 203t310.5 66 q203 0 297 -89t65 -231l-61 -317q-42 -214 -155.5 -301.5t-356.5 -87.5q-174 0 -261.5 31.5t-113.5 104zM225 315q-23 -116 42.5 -170.5t250.5 -54.5q184 0 270 56.5t111 189.5q21 100 -51.5 150.5t-243.5 50.5q-335 0 -379 -222zM440 1192l25 135q3 12 14 21.5t23 9.5h137 q7 0 13 -8t8 -16l2 -7l-25 -135q-3 -12 -14.5 -21.5t-24.5 -9.5h-137q-12 0 -18 9.5t-3 21.5zM838 1192l24 135q3 12 14 21.5t23 9.5h137q8 0 14 -8t8 -16l1 -7l-25 -135q-3 -12 -14 -21.5t-23 -9.5h-137q-13 0 -19 9.5t-3 21.5z" />
<glyph unicode="&#xe5;" d="M123 123.5q-26 72.5 0 191.5q22 114 73.5 182.5t155.5 105t273 36.5q127 0 199 -27t114 -82l31 164q20 102 -56.5 159.5t-224.5 57.5q-69 0 -116 -6t-90.5 -22.5t-69.5 -50.5t-37 -87q-1 -13 -13 -21.5t-26 -8.5h-41q-12 0 -20 8.5t-7 21.5q24 120 104 185t236 80l21 102 q3 12 14.5 21.5t24.5 9.5h135q13 0 21 -9.5t5 -21.5l-20 -106q150 -21 218 -105.5t44 -206.5l-61 -317q-42 -214 -155.5 -301.5t-356.5 -87.5q-174 0 -261.5 31.5t-113.5 104zM225 315q-23 -116 42.5 -170.5t250.5 -54.5q184 0 270 56.5t111 189.5q21 100 -51.5 150.5 t-243.5 50.5q-335 0 -379 -222zM688 1034q-2 -6 1 -11t9 -5h23q16 0 20 16l2 19q3 16 -12 16h-20q-18 0 -21 -16z" />
<glyph unicode="&#xe6;" horiz-adv-x="1771" d="M123 123.5q-26 72.5 0 191.5q22 114 73.5 182.5t155.5 105t273 36.5q127 0 199 -27t114 -82l31 164q20 102 -56.5 159.5t-224.5 57.5q-69 0 -116 -6t-90.5 -22.5t-69.5 -50.5t-37 -87q-1 -13 -13 -21.5t-26 -8.5h-41q-12 0 -20 8.5t-7 21.5q27 137 130.5 203t310.5 66 q142 0 230.5 -44.5t121.5 -123.5q31 43 59 65q114 105 348 105q221 0 310 -75.5t59 -225.5q-54 -285 -483 -285q-121 0 -204 24.5t-112 67.5q-11 -64 -16 -108.5t-6 -93.5t7.5 -80.5t27 -62t50 -47.5t78 -27.5t109.5 -10.5q323 0 363 195q1 12 13 21t24 9h36q12 0 19.5 -9 t5.5 -21q-30 -148 -145 -222.5t-334 -74.5q-147 0 -229 40.5t-113 123.5q-60 -87 -162.5 -126.5t-267.5 -39.5q-174 0 -261.5 31.5t-113.5 104zM225 315q-23 -116 42.5 -170.5t250.5 -54.5q184 0 270 56.5t111 189.5q21 100 -51.5 150.5t-243.5 50.5q-335 0 -379 -222z M1081 672q-18 -63 55 -102.5t238 -39.5q326 0 361 185q21 103 -56 150.5t-231 47.5t-240 -55q-88 -57 -127 -186z" />
<glyph unicode="&#xe7;" horiz-adv-x="991" d="M160 512q54 275 183 388.5t359 113.5q207 0 286.5 -73.5t53.5 -213.5q-3 -13 -13 -22t-23 -9h-37q-12 0 -20 9.5t-5 21.5q19 99 -52.5 141.5t-209.5 42.5q-182 0 -280 -91t-140 -308q-43 -223 11 -323.5t243 -100.5q136 0 229.5 46t112.5 145q3 14 13.5 23t23.5 9h37 q12 0 19.5 -9.5t4.5 -22.5q-54 -277 -426 -291l-2 -19q-4 -22 6 -38.5t26 -26t31.5 -27t23 -42.5t-0.5 -71q-12 -62 -65 -102.5t-117 -40.5q-66 0 -97 38.5t-16 109.5q0 6 6.5 11t12.5 5h47q6 0 10 -5t4 -11q-14 -68 47 -68q31 0 57 16t32 47t-2.5 51t-25 31.5t-32 24 t-23.5 37t-1 61.5l4 21q-207 9 -277 133t-18 389z" />
<glyph unicode="&#xe8;" horiz-adv-x="991" d="M138 219q-13 114 20 285q56 288 188 407q114 105 348 105q222 0 310.5 -75t58.5 -226q-54 -285 -483 -285q-121 0 -204 24.5t-112 67.5q-11 -64 -16 -108.5t-6 -93.5t7.5 -80.5t27 -62t50 -47.5t78 -27.5t109.5 -10.5q323 0 363 195q1 12 12.5 21t23.5 9h37q13 0 21 -9 t6 -21q-30 -148 -145.5 -222.5t-335.5 -74.5q-173 0 -259 57.5t-99 171.5zM309 672q-18 -63 54.5 -102.5t236.5 -39.5q326 0 361 185q21 103 -56 150.5t-231 47.5t-240 -55q-85 -55 -125 -186zM550 1280.5q-3 12.5 3 24.5l12 16q6 12 19 17.5t24 0.5l301 -120 q12 -4 15.5 -16.5t-4.5 -24.5l-9 -17q-7 -12 -20.5 -17.5t-24.5 -0.5l-303 121q-10 4 -13 16.5z" />
<glyph unicode="&#xe9;" horiz-adv-x="991" d="M138 219q-13 114 20 285q56 288 188 407q114 105 348 105q222 0 310.5 -75t58.5 -226q-54 -285 -483 -285q-121 0 -204 24.5t-112 67.5q-11 -64 -16 -108.5t-6 -93.5t7.5 -80.5t27 -62t50 -47.5t78 -27.5t109.5 -10.5q323 0 363 195q1 12 12.5 21t23.5 9h37q13 0 21 -9 t6 -21q-30 -148 -145.5 -222.5t-335.5 -74.5q-173 0 -259 57.5t-99 171.5zM309 672q-18 -63 54.5 -102.5t236.5 -39.5q326 0 361 185q21 103 -56 150.5t-231 47.5t-240 -55q-85 -55 -125 -186zM528 1178q-1 12 7 24t20 17l350 120q11 5 21.5 -0.5t13.5 -17.5l4 -16 q3 -12 -5 -24.5t-21 -16.5l-349 -121q-14 -5 -25 0.5t-12 17.5z" />
<glyph unicode="&#xea;" horiz-adv-x="991" d="M138 219q-13 114 20 285q56 288 188 407q114 105 348 105q222 0 310.5 -75t58.5 -226q-54 -285 -483 -285q-121 0 -204 24.5t-112 67.5q-11 -64 -16 -108.5t-6 -93.5t7.5 -80.5t27 -62t50 -47.5t78 -27.5t109.5 -10.5q323 0 363 195q1 12 12.5 21t23.5 9h37q13 0 21 -9 t6 -21q-30 -148 -145.5 -222.5t-335.5 -74.5q-173 0 -259 57.5t-99 171.5zM309 672q-18 -63 54.5 -102.5t236.5 -39.5q326 0 361 185q21 103 -56 150.5t-231 47.5t-240 -55q-85 -55 -125 -186zM516 1167q-8 11 4 23l230 190q11 11 22 0l156 -192q11 -11 -4 -23l-43 -35 q-6 -4 -13 -4t-10 4l-117 146l-172 -146q-15 -11 -22 0z" />
<glyph unicode="&#xeb;" horiz-adv-x="991" d="M138 219q-13 114 20 285q56 288 188 407q114 105 348 105q222 0 310.5 -75t58.5 -226q-54 -285 -483 -285q-121 0 -204 24.5t-112 67.5q-11 -64 -16 -108.5t-6 -93.5t7.5 -80.5t27 -62t50 -47.5t78 -27.5t109.5 -10.5q323 0 363 195q1 12 12.5 21t23.5 9h37q13 0 21 -9 t6 -21q-30 -148 -145.5 -222.5t-335.5 -74.5q-173 0 -259 57.5t-99 171.5zM309 672q-18 -63 54.5 -102.5t236.5 -39.5q326 0 361 185q21 103 -56 150.5t-231 47.5t-240 -55q-85 -55 -125 -186zM430 1192l25 135q3 12 14 21.5t23 9.5h137q7 0 12.5 -8t7.5 -16l2 -7l-24 -135 q-3 -12 -14.5 -21.5t-24.5 -9.5h-137q-12 0 -18 9.5t-3 21.5zM827 1192l25 135q3 12 14 21.5t23 9.5h137q8 0 14 -8t8 -16l1 -7l-25 -135q-3 -12 -14 -21.5t-23 -9.5h-137q-13 0 -19.5 9.5t-3.5 21.5z" />
<glyph unicode="&#xec;" horiz-adv-x="475" d="M147 371l117 602q1 12 13 21.5t24 9.5h43q13 0 19 -9t4 -22l-117 -602q-53 -265 180 -271h29q12 0 19.5 -9t4.5 -21l-6 -37q-3 -13 -14 -23t-23 -10q-193 0 -261 93t-32 278zM292 1280.5q-3 12.5 3 24.5l12 16q6 12 19 17.5t24 0.5l301 -120q12 -4 15.5 -16.5t-4.5 -24.5 l-9 -17q-7 -12 -20.5 -17.5t-24.5 -0.5l-303 121q-10 4 -13 16.5z" />
<glyph unicode="&#xed;" horiz-adv-x="475" d="M147 371l117 602q1 12 13 21.5t24 9.5h43q13 0 19 -9t4 -22l-117 -602q-53 -265 180 -271h29q12 0 19.5 -9t4.5 -21l-6 -37q-3 -13 -14 -23t-23 -10q-193 0 -261 93t-32 278zM270 1178q-1 12 7 24t20 17l350 120q11 5 21.5 -0.5t13.5 -17.5l4 -16q3 -12 -5 -24t-22 -17 l-348 -121q-14 -5 -25 0.5t-12 17.5z" />
<glyph unicode="&#xee;" horiz-adv-x="475" d="M147 371l117 602q1 12 13 21.5t24 9.5h43q13 0 19 -9t4 -22l-117 -602q-53 -265 180 -271h29q12 0 19.5 -9t4.5 -21l-6 -37q-3 -13 -14 -23t-23 -10q-193 0 -261 93t-32 278zM260 1167q-8 11 4 23l230 190q11 11 22 0l156 -192q11 -11 -4 -23l-43 -35q-6 -4 -13 -4t-10 4 l-117 146l-172 -146q-15 -11 -22 0z" />
<glyph unicode="&#xef;" horiz-adv-x="475" d="M147 371l117 602q1 12 13 21.5t24 9.5h43q13 0 19 -9t4 -22l-117 -602q-53 -265 180 -271h29q12 0 19.5 -9t4.5 -21l-6 -37q-3 -13 -14 -23t-23 -10q-193 0 -261 93t-32 278zM172 1192l25 135q3 12 13.5 21.5t22.5 9.5h138q7 0 12.5 -8t7.5 -16l2 -7l-24 -135 q-3 -12 -14.5 -21.5t-24.5 -9.5h-137q-12 0 -18 9.5t-3 21.5zM569 1192l25 135q3 12 14 21.5t23 9.5h137q8 0 14 -8t8 -16l1 -7l-25 -135q-3 -12 -14 -21.5t-23 -9.5h-137q-13 0 -19.5 9.5t-3.5 21.5z" />
<glyph unicode="&#xf0;" horiz-adv-x="1019" d="M143 428q34 177 156.5 285t331.5 108q68 0 127 -19t93.5 -46t59.5 -54t35 -46l10 -19l29 143q34 193 -49 324l-135 -82q-9 -6 -22 -4t-17 12l-19 33q-4 10 1 23.5t16 21.5l112 70q-86 73 -223 73q-12 0 -19 9.5t-5 21.5l8 37q1 13 13 23t24 10q197 0 313 -107l133 82 q10 6 23.5 4t17.5 -12l19 -35q4 -9 -1 -22t-16 -21l-119 -72q92 -150 47 -387l-67 -342q-20 -107 -54.5 -185t-94 -141.5t-153.5 -95.5t-222 -32q-440 0 -353 442zM246 428q-65 -342 270 -342q171 0 265 72.5t126 236.5q17 85 -8 158t-97 120.5t-179 47.5q-319 0 -377 -293z " />
<glyph unicode="&#xf1;" horiz-adv-x="1028" d="M80 31q-2 -13 4.5 -22t19.5 -9h41q13 0 24 9.5t13 21.5l101 508q34 180 131 276t276 96q128 0 194 -39.5t79.5 -120.5t-11.5 -204l-100 -516q-2 -12 5.5 -21.5t19.5 -9.5h43q12 0 22 9.5t12 21.5l101 516q50 251 -27 359t-317 108q-224 0 -353 -112.5t-178 -358.5z M500 1202q0 9 8 17q81 84 164 84q80 0 108 -35q4 -7 22.5 -15t41.5 -8q40 0 94 43h-2q12 12 31 12q12 0 26.5 -20t12.5 -27q0 -5 -9 -18q-76 -82 -166 -82q-66 0 -110 39l-6 4q-21 16 -49 16q-56 0 -97 -47h2q-10 -10 -28 -10q-14 0 -30 16.5t-13 30.5z" />
<glyph unicode="&#xf2;" horiz-adv-x="1007" d="M160 502q38 193 100 302.5t165.5 159.5t270.5 50q129 0 205.5 -25.5t118 -85t41 -157.5t-26.5 -244q-29 -152 -71.5 -250.5t-108.5 -157.5t-150.5 -82.5t-207.5 -23.5q-238 0 -314.5 116t-21.5 398zM262 502q-45 -235 8.5 -323.5t245.5 -88.5q196 0 283.5 88.5 t132.5 323.5t-7.5 322t-248.5 87q-99 0 -166 -20t-116 -69t-79 -125t-53 -195zM558 1280.5q-3 12.5 3 24.5l12 16q6 12 19 17.5t24 0.5l302 -120q12 -4 15 -16.5t-5 -24.5l-8 -17q-7 -12 -21 -17.5t-25 -0.5l-303 121q-10 4 -13 16.5z" />
<glyph unicode="&#xf3;" horiz-adv-x="1007" d="M160 502q38 193 100 302.5t165.5 159.5t270.5 50q129 0 205.5 -25.5t118 -85t41 -157.5t-26.5 -244q-29 -152 -71.5 -250.5t-108.5 -157.5t-150.5 -82.5t-207.5 -23.5q-238 0 -314.5 116t-21.5 398zM262 502q-45 -235 8.5 -323.5t245.5 -88.5q196 0 283.5 88.5 t132.5 323.5t-7.5 322t-248.5 87q-99 0 -166 -20t-116 -69t-79 -125t-53 -195zM537 1178q-2 12 6 24.5t20 16.5l350 120q11 5 21.5 -0.5t13.5 -17.5l4 -16q3 -12 -5 -24.5t-21 -16.5l-348 -121q-14 -5 -25 0.5t-12 17.5z" />
<glyph unicode="&#xf4;" horiz-adv-x="1007" d="M160 502q38 193 100 302.5t165.5 159.5t270.5 50q129 0 205.5 -25.5t118 -85t41 -157.5t-26.5 -244q-29 -152 -71.5 -250.5t-108.5 -157.5t-150.5 -82.5t-207.5 -23.5q-238 0 -314.5 116t-21.5 398zM262 502q-45 -235 8.5 -323.5t245.5 -88.5q196 0 283.5 88.5 t132.5 323.5t-7.5 322t-248.5 87q-99 0 -166 -20t-116 -69t-79 -125t-53 -195zM524 1167q-8 11 4 23l230 190q11 11 22 0l156 -192q11 -11 -4 -23l-43 -35q-6 -4 -13 -4t-10 4l-116 146l-172 -146q-6 -4 -13 -4t-10 4z" />
<glyph unicode="&#xf5;" horiz-adv-x="1007" d="M160 502q-55 -282 21.5 -398t314.5 -116q123 0 207.5 23.5t150.5 82.5t108.5 157.5t71.5 250.5q26 146 26.5 244t-41 157.5t-118 85t-205.5 25.5q-167 0 -270.5 -50t-165.5 -159.5t-100 -302.5zM262 502q23 119 53 195t79 125t116 69t166 20q196 0 248.5 -87t7.5 -322 t-132.5 -323.5t-283.5 -88.5q-192 0 -245.5 88.5t-8.5 323.5zM489 1202q0 8 9 17q81 84 164 84q80 0 108 -35q4 -7 22.5 -15t41.5 -8q40 0 94 43h-2q12 12 30 12q12 0 26.5 -20t12.5 -27q0 -6 -8 -18q-76 -82 -166 -82q-66 0 -110 39l-6 4q-21 16 -50 16q-55 0 -96 -47h2 q-10 -10 -29 -10q-14 0 -30 16.5t-13 30.5z" />
<glyph unicode="&#xf6;" horiz-adv-x="1007" d="M160 502q38 193 100 302.5t165.5 159.5t270.5 50q129 0 205.5 -25.5t118 -85t41 -157.5t-26.5 -244q-29 -152 -71.5 -250.5t-108.5 -157.5t-150.5 -82.5t-207.5 -23.5q-238 0 -314.5 116t-21.5 398zM262 502q-45 -235 8.5 -323.5t245.5 -88.5q196 0 283.5 88.5 t132.5 323.5t-7.5 322t-248.5 87q-99 0 -166 -20t-116 -69t-79 -125t-53 -195zM438 1192l25 135q3 12 14 21.5t23 9.5h137q7 0 12.5 -8t7.5 -16l2 -7l-24 -135q-3 -12 -14.5 -21.5t-24.5 -9.5h-137q-12 0 -18 9.5t-3 21.5zM836 1192l24 135q3 12 14 21.5t23 9.5h137 q8 0 14 -8t8 -16l1 -7l-25 -135q-3 -12 -14 -21.5t-23 -9.5h-137q-13 0 -19 9.5t-3 21.5z" />
<glyph unicode="&#xf7;" horiz-adv-x="792" d="M180 541l8 41q1 13 13 22.5t24 9.5h582q12 0 19 -9t5 -21l-8 -43q-3 -12 -14 -21.5t-23 -9.5h-581q-12 0 -20 9.5t-5 21.5zM356 250l23 115q3 12 14 21t23 9h116q8 0 14 -7.5t8 -15.5l1 -7l-23 -115q-1 -12 -12.5 -21.5t-23.5 -9.5h-117q-13 0 -19 9t-4 22zM455 758 l22 114q3 12 14 21.5t23 9.5h117q8 0 13.5 -7.5t7.5 -15.5l1 -8l-22 -114q-1 -12 -12 -21.5t-23 -9.5h-117q-13 0 -19.5 9t-4.5 22z" />
<glyph unicode="&#xf8;" horiz-adv-x="1011" d="M132.5 -17q-0.5 13 8.5 23l60 74q-53 58 -62.5 162t21.5 260q38 193 100 302.5t165.5 159.5t270.5 50q160 0 242 -39l84 100q21 24 45 10l14 -12q11 -6 11.5 -19t-9.5 -24l-82 -102q52 -56 59 -161t-26 -265q-29 -152 -71.5 -250.5t-108.5 -157.5t-150.5 -82.5 t-207.5 -23.5q-151 0 -234 45l-57 -70q-23 -27 -47 -10l-15 10q-10 7 -10.5 20zM262 502q-47 -247 14 -332l586 711q-59 30 -186 30q-99 0 -166 -20t-116 -69t-79 -125t-53 -195zM334 121q61 -31 182 -31q196 0 283.5 88.5t132.5 323.5q47 243 -12 329z" />
<glyph unicode="&#xf9;" horiz-adv-x="1024" d="M164 455l100 518q1 12 13 21.5t26 9.5h43q11 0 17 -9t4 -22l-101 -518q-38 -192 18.5 -278.5t245.5 -86.5q179 0 276.5 96.5t131.5 276.5l100 510q1 12 13 21.5t24 9.5h43q13 0 19 -9t4 -22l-101 -514q-47 -246 -176.5 -358.5t-353.5 -112.5q-231 0 -313 110t-33 357z M566.5 1280.5q-3.5 12.5 2.5 24.5l13 16q6 12 19 17.5t24 0.5l301 -120q12 -4 15 -16.5t-5 -24.5l-8 -17q-7 -12 -20.5 -17.5t-24.5 -0.5l-303 121q-10 4 -13.5 16.5z" />
<glyph unicode="&#xfa;" horiz-adv-x="1024" d="M164 455l100 518q1 12 13 21.5t26 9.5h43q11 0 17 -9t4 -22l-101 -518q-38 -192 18.5 -278.5t245.5 -86.5q179 0 276.5 96.5t131.5 276.5l100 510q1 12 13 21.5t24 9.5h43q13 0 19 -9t4 -22l-101 -514q-47 -246 -176.5 -358.5t-353.5 -112.5q-231 0 -313 110t-33 357z M545 1178q-2 12 6 24.5t20 16.5l351 120q11 5 21 -0.5t13 -17.5l5 -16q3 -12 -5 -24t-22 -17l-348 -121q-14 -5 -25 0.5t-12 17.5z" />
<glyph unicode="&#xfb;" horiz-adv-x="1024" d="M164 455l100 518q1 12 13 21.5t26 9.5h43q11 0 17 -9t4 -22l-101 -518q-38 -192 18.5 -278.5t245.5 -86.5q179 0 276.5 96.5t131.5 276.5l100 510q1 12 13 21.5t24 9.5h43q13 0 19 -9t4 -22l-101 -514q-47 -246 -176.5 -358.5t-353.5 -112.5q-231 0 -313 110t-33 357z M532 1167q-7 11 5 23l229 190q11 11 22 0l156 -192q11 -11 -4 -23l-43 -35q-6 -4 -13 -4t-10 4l-116 146l-172 -146q-6 -4 -13 -4t-10 4z" />
<glyph unicode="&#xfc;" horiz-adv-x="1024" d="M164 455l100 518q1 12 13 21.5t26 9.5h43q11 0 17 -9t4 -22l-101 -518q-38 -192 18.5 -278.5t245.5 -86.5q179 0 276.5 96.5t131.5 276.5l100 510q1 12 13 21.5t24 9.5h43q13 0 19 -9t4 -22l-101 -514q-47 -246 -176.5 -358.5t-353.5 -112.5q-231 0 -313 110t-33 357z M446 1192l25 135q3 12 14 21.5t23 9.5h137q7 0 13 -8t8 -16l2 -7l-25 -135q-3 -12 -14.5 -21.5t-24.5 -9.5h-137q-12 0 -18 9.5t-3 21.5zM844 1192l24 135q3 12 14 21.5t23 9.5h137q8 0 14 -8t8 -16l1 -7l-25 -135q-3 -12 -13.5 -21.5t-22.5 -9.5h-138q-13 0 -19 9.5 t-3 21.5z" />
<glyph unicode="&#xfd;" horiz-adv-x="937" d="M156 -395q-4 69 18.5 141.5t47.5 109.5l24 38l196 296l-215 756q-3 11 2.5 23t18.5 16l43 21q14 5 25 0t14 -17l192 -680l451 676q8 12 20.5 17.5t24.5 1.5l37 -17q26 -10 8 -39l-727 -1095q-12 -12 -27.5 -36.5t-32.5 -79t-14 -110.5q1 -12 -6.5 -23t-19.5 -14l-46 -10 q-15 -1 -24.5 6t-9.5 19zM502 1178q-2 12 6 24.5t20 16.5l351 120q11 5 21 -0.5t13 -17.5l5 -16q3 -12 -5 -24t-22 -17l-348 -121q-14 -5 -25 0.5t-12 17.5z" />
<glyph unicode="&#xfe;" horiz-adv-x="1001" d="M6 -354l326 1681q3 12 14 21.5t23 9.5h41q13 0 21 -9.5t5 -21.5l-86 -444q4 5 12 14t39 32t68.5 40.5t102.5 32t139 14.5q94 0 159 -15.5t111.5 -51.5t67.5 -96.5t20 -149t-25 -211.5q-29 -151 -68 -246t-103 -154t-149 -81.5t-214 -22.5q-122 0 -198.5 24t-116.5 80 l-86 -444q-3 -13 -14 -23t-23 -10h-43q-12 0 -19 9.5t-4 21.5zM272 492q-44 -224 16.5 -314t241.5 -90q101 0 168 19.5t114.5 69t76 123t51.5 192.5q45 231 -9.5 327t-240.5 96t-279.5 -96.5t-138.5 -326.5z" />
<glyph unicode="&#xff;" horiz-adv-x="937" d="M156 -395q-4 69 18.5 141.5t47.5 109.5l24 38l196 296l-215 756q-3 11 2.5 23t18.5 16l43 21q14 5 25 0t14 -17l192 -680l451 676q8 12 20.5 17.5t24.5 1.5l37 -17q26 -10 8 -39l-727 -1095q-12 -12 -27.5 -36.5t-32.5 -79t-14 -110.5q1 -12 -6.5 -23t-19.5 -14l-46 -10 q-15 -1 -24.5 6t-9.5 19zM403 1192l25 135q3 12 14 21.5t23 9.5h137q7 0 13 -8t8 -16l2 -7l-25 -135q-3 -12 -14.5 -21.5t-24.5 -9.5h-137q-12 0 -18 9.5t-3 21.5zM801 1192l24 135q3 12 14 21.5t23 9.5h137q8 0 13.5 -8t7.5 -16l2 -7l-25 -135q-3 -12 -13.5 -21.5 t-22.5 -9.5h-138q-13 0 -19 9.5t-3 21.5z" />
<glyph unicode="&#x152;" horiz-adv-x="1785" d="M153.5 296.5q-11.5 155.5 34.5 389.5q35 184 83 307.5t123.5 212t184.5 128.5t261 40q144 0 224 -34.5t126 -108.5q124 145 375 145q209 0 289 -74t53 -212q-3 -13 -14 -23t-23 -10h-37q-12 0 -20 10t-5 23q19 99 -53.5 141.5t-210.5 42.5q-133 0 -221 -56t-109 -163 q-21 -102 40 -159.5t210 -57.5h115q12 0 20 -9.5t5 -21.5l-7 -37q-3 -12 -13.5 -21.5t-22.5 -9.5h-115q-132 0 -212 -33.5t-121.5 -100t-63.5 -183.5q-10 -57 -12 -107t14.5 -92.5t47 -72.5t86.5 -47t134 -17q316 0 356 190q1 13 13 23t26 10h37q12 0 19.5 -9.5t5.5 -23.5 q-14 -68 -43.5 -118.5t-83.5 -90.5t-142 -60.5t-209 -20.5q-126 0 -210.5 42.5t-124.5 112.5q-77 -82 -166 -118.5t-228 -36.5q-204 0 -304 77.5t-111.5 233zM256.5 342.5q5.5 -135.5 84 -202t245.5 -66.5q128 0 199.5 35.5t150.5 126.5q-11 78 10 186q29 154 113.5 256.5 t226.5 109.5q-69 12 -112 39t-57.5 62.5t-16.5 78.5t10 87q2 13 20 65q-27 62 -59.5 95.5t-92 51t-157.5 17.5q-86 0 -153 -15.5t-119.5 -49.5t-91.5 -80.5t-70 -117t-53 -150t-43 -187.5q-40 -206 -34.5 -341.5z" />
<glyph unicode="&#x153;" horiz-adv-x="1775" d="M160 502q38 193 100 302.5t165.5 159.5t270.5 50q162 0 246.5 -42.5t108.5 -142.5q25 42 69 82q114 105 348 105q221 0 310 -75.5t59 -225.5q-54 -285 -483 -285q-121 0 -204 24.5t-112 67.5q-11 -64 -16 -108.5t-6 -93.5t7.5 -80.5t27 -62t50 -47.5t78 -27.5 t109.5 -10.5q323 0 363 195q1 12 13 21t24 9h36q13 0 20 -8.5t5 -21.5q-30 -148 -145 -222.5t-334 -74.5q-156 0 -239.5 45t-108.5 139q-64 -101 -165.5 -143.5t-260.5 -42.5q-238 0 -314.5 116t-21.5 398zM262 502q-45 -235 8.5 -323.5t245.5 -88.5q196 0 283.5 88.5 t132.5 323.5t-7.5 322t-248.5 87q-99 0 -166 -20t-116 -69t-79 -125t-53 -195zM1081 672q-18 -63 55 -102.5t238 -39.5q326 0 361 185q21 103 -56 150.5t-231 47.5t-240 -55q-88 -57 -127 -186z" />
<glyph unicode="&#x178;" horiz-adv-x="964" d="M293 1325q-4 16 10 23l62 28q7 3 15 -1t9 -11l211 -719l477 719q3 7 12.5 11t14.5 1l53 -24q13 -8 4 -23l-555 -831q-68 -99 -82 -181l-57 -286q-1 -12 -12 -21.5t-23 -9.5h-43q-13 0 -21 9.5t-6 21.5l58 286q9 44 33.5 95.5t44.5 81.5l20 30zM485 1546l25 135 q3 12 14 21.5t23 9.5h137q7 0 13 -8t8 -16l2 -7l-25 -135q-3 -12 -14.5 -21t-24.5 -9h-137q-12 0 -18 9t-3 21zM883 1546l24 135q3 12 14 21.5t23 9.5h137q8 0 13.5 -8t7.5 -16l2 -7l-25 -135q-3 -12 -14 -21t-23 -9h-137q-13 0 -19 9t-3 21z" />
<glyph unicode="&#x2c6;" horiz-adv-x="665" d="M354 1167q-8 11 4 23l230 190q11 11 22 0l156 -192q11 -11 -4 -23l-43 -35q-6 -4 -13 -4t-10 4l-116 146l-172 -146q-6 -4 -13 -4t-10 4z" />
<glyph unicode="&#x2dc;" horiz-adv-x="675" d="M324 1202q0 9 8 17q81 84 164 84q80 0 108 -35q4 -7 22.5 -15t41.5 -8q40 0 94 43h-2q12 12 31 12q12 0 26 -20t12 -27q0 -6 -8 -18q-76 -82 -166 -82q-66 0 -110 39l-6 4q-21 16 -50 16q-55 0 -96 -47h2q-10 -10 -28 -10q-14 0 -30 16.5t-13 30.5z" />
<glyph unicode="&#x2000;" horiz-adv-x="870" />
<glyph unicode="&#x2001;" horiz-adv-x="1740" />
<glyph unicode="&#x2002;" horiz-adv-x="870" />
<glyph unicode="&#x2003;" horiz-adv-x="1740" />
<glyph unicode="&#x2004;" horiz-adv-x="580" />
<glyph unicode="&#x2005;" horiz-adv-x="435" />
<glyph unicode="&#x2006;" horiz-adv-x="290" />
<glyph unicode="&#x2007;" horiz-adv-x="290" />
<glyph unicode="&#x2008;" horiz-adv-x="217" />
<glyph unicode="&#x2009;" horiz-adv-x="348" />
<glyph unicode="&#x200a;" horiz-adv-x="96" />
<glyph unicode="&#x2010;" horiz-adv-x="724" d="M176 541l8 41q1 13 13 22.5t24 9.5h520q12 0 19.5 -9t5.5 -21l-8 -43q-3 -12 -14 -21.5t-23 -9.5h-520q-12 0 -20 9.5t-5 21.5z" />
<glyph unicode="&#x2011;" horiz-adv-x="724" d="M176 541l8 41q1 13 13 22.5t24 9.5h520q12 0 19.5 -9t5.5 -21l-8 -43q-3 -12 -14 -21.5t-23 -9.5h-520q-12 0 -20 9.5t-5 21.5z" />
<glyph unicode="&#x2012;" horiz-adv-x="724" d="M176 541l8 41q1 13 13 22.5t24 9.5h520q12 0 19.5 -9t5.5 -21l-8 -43q-3 -12 -14 -21.5t-23 -9.5h-520q-12 0 -20 9.5t-5 21.5z" />
<glyph unicode="&#x2013;" horiz-adv-x="911" d="M180 541l8 41q1 13 13 22.5t24 9.5h705q12 0 19 -9t5 -21l-8 -43q-3 -12 -14 -21.5t-23 -9.5h-704q-12 0 -20 9.5t-5 21.5z" />
<glyph unicode="&#x2014;" horiz-adv-x="1032" d="M176 541l8 41q1 13 13 22.5t24 9.5h828q12 0 19 -9t5 -21l-8 -43q-3 -12 -14 -21.5t-23 -9.5h-827q-12 0 -20 9.5t-5 21.5z" />
<glyph unicode="&#x2018;" horiz-adv-x="350" d="M244 877l24 133q41 210 191 352q9 11 22.5 14t22.5 -4l26 -18q17 -11 -4 -41q-68 -73 -104.5 -133.5t-52.5 -139.5h73q9 0 17.5 -9.5t5.5 -20.5l-25 -133q-3 -13 -14 -23t-23 -10h-133q-14 0 -21.5 10t-4.5 23z" />
<glyph unicode="&#x2019;" horiz-adv-x="350" d="M242 848q-20 12 2 41q50 54 74.5 84.5t47.5 78.5t35 109h-73q-9 0 -17.5 9.5t-5.5 21.5l25 133q3 14 14.5 23.5t24.5 9.5h133q13 0 20 -10.5t4 -22.5l-24 -133q-42 -212 -191 -352q-7 -12 -21.5 -15.5t-23.5 2.5z" />
<glyph unicode="&#x201a;" horiz-adv-x="356" d="M29 -258q-19 11 2 41q50 54 74.5 84.5t47.5 78.5t35 109h-73q-8 0 -17 10t-6 21l25 133q3 14 14.5 23.5t24.5 9.5h133q13 0 20 -10.5t4 -22.5l-24 -133q-42 -212 -191 -352q-8 -11 -22 -14t-23 4z" />
<glyph unicode="&#x201c;" horiz-adv-x="645" d="M244 877l24 133q41 210 191 352q9 11 22.5 14t22.5 -4l26 -18q17 -11 -4 -41q-68 -73 -104.5 -133.5t-52.5 -139.5h73q9 0 17.5 -9.5t5.5 -20.5l-25 -133q-3 -13 -14 -23t-23 -10h-133q-14 0 -21.5 10t-4.5 23zM526 877l25 133q45 215 192 352q8 11 22 14t23 -4l25 -18 q9 -7 7 -18.5t-11 -22.5q-68 -73 -105 -133.5t-53 -139.5h76q7 0 15.5 -9.5t5.5 -20.5l-25 -133q-3 -13 -14 -23t-23 -10h-133q-15 0 -22.5 10.5t-4.5 22.5z" />
<glyph unicode="&#x201d;" horiz-adv-x="638" d="M242 848q-20 12 2 41q50 54 74.5 84.5t47.5 78.5t35 109h-73q-9 0 -17.5 9.5t-5.5 21.5l25 133q3 14 14.5 23.5t24.5 9.5h133q13 0 20 -10.5t4 -22.5l-24 -133q-42 -212 -191 -352q-7 -12 -21.5 -15.5t-23.5 2.5zM524 848q-20 13 4 41q72 77 106.5 132t51.5 140h-76 q-7 0 -15 9.5t-5 21.5l24 133q3 13 14 23t23 10h133q15 0 22.5 -10.5t4.5 -22.5l-25 -133q-21 -108 -65 -192t-127 -160q-7 -12 -21.5 -15.5t-23.5 2.5z" />
<glyph unicode="&#x201e;" horiz-adv-x="649" d="M27 -258q-17 11 4 41q50 54 74.5 84.5t47.5 78.5t35 109h-73q-8 0 -17 10t-6 21l25 133q3 13 14 23t23 10h133q14 0 21.5 -10t4.5 -23l-24 -133q-42 -212 -191 -352q-9 -11 -22.5 -14t-22.5 4zM311 -258q-18 12 2 41q72 75 106.5 130.5t51.5 141.5h-74q-8 0 -16.5 10 t-5.5 21l24 133q3 14 14.5 23.5t24.5 9.5h133q13 0 20.5 -10.5t4.5 -22.5l-25 -133q-21 -108 -65 -192t-125 -160q-8 -11 -22 -14t-23 4z" />
<glyph unicode="&#x2022;" horiz-adv-x="624" d="M185 524q0 41 12 101q17 85 35.5 133.5t52 78t77.5 39t119 9.5q50 0 84.5 -4.5t60 -16.5t38.5 -30t18 -48t2 -68t-14 -93q-27 -139 -90.5 -190.5t-194.5 -51.5q-55 0 -90.5 6.5t-61.5 22t-37 43.5t-11 69z" />
<glyph unicode="&#x2026;" horiz-adv-x="1081" d="M80 31l26 135q3 12 14 21.5t23 9.5h138q8 0 13.5 -7.5t7.5 -15.5l1 -8l-27 -135q-2 -12 -12 -21.5t-22 -9.5h-138q-13 0 -19.5 9t-4.5 22zM444 31l27 135q3 12 14.5 21.5t24.5 9.5h137q7 0 12.5 -7.5t6.5 -15.5l2 -8l-27 -135q-1 -12 -12 -21.5t-23 -9.5h-137 q-12 0 -19.5 9.5t-5.5 21.5zM811 31l27 135q3 12 14.5 21.5t24.5 9.5h137q7 0 12 -7.5t6 -15.5l2 -8l-26 -135q-1 -12 -12 -21.5t-23 -9.5h-137q-12 0 -19.5 9.5t-5.5 21.5z" />
<glyph unicode="&#x202f;" horiz-adv-x="348" />
<glyph unicode="&#x2039;" horiz-adv-x="591" d="M216 731.5q2 13.5 13 22.5l428 356q26 22 43 2l25 -31q7 -9 5 -22.5t-13 -22.5l-367 -305l248 -307q7 -9 5 -21.5t-13 -21.5l-37 -31q-11 -9 -23 -9t-20 9l-289 359q-7 9 -5 22.5z" />
<glyph unicode="&#x203a;" horiz-adv-x="573" d="M145 402.5q2 12.5 13 21.5l366 307l-248 305q-7 9 -4.5 22.5t13.5 22.5l34 31q11 9 24.5 8t21.5 -10l288 -356q7 -9 5 -22.5t-13 -22.5l-428 -359q-11 -9 -23.5 -9t-19.5 9l-24 31q-7 9 -5 21.5z" />
<glyph unicode="&#x205f;" horiz-adv-x="435" />
<glyph unicode="&#x20ac;" horiz-adv-x="1130" d="M152 580l6 41q3 14 14.5 23t24.5 9h45l4 31q2 9 6 28.5t6 28.5h-45q-13 0 -20.5 9.5t-4.5 21.5l9 43q2 12 12.5 21.5t23.5 9.5h50q74 276 214 400t404 124q207 0 286.5 -73.5t53.5 -211.5q-3 -13 -15 -22.5t-24 -9.5h-37q-12 0 -18.5 9.5t-3.5 22.5q19 99 -52.5 142 t-209.5 43q-110 0 -190 -25t-137.5 -80t-95 -131t-67.5 -188h598q13 0 20 -9t5 -22l-8 -41q-3 -14 -13.5 -23.5t-23.5 -9.5h-602q-13 -58 -13 -59l-4 -29h602q13 0 20 -8.5t5 -21.5l-8 -43q-3 -13 -13.5 -22t-23.5 -9h-600q-20 -152 -2 -255t96 -155.5t225 -52.5 q320 0 357 190q1 13 12.5 23t23.5 10h37q12 0 19.5 -9.5t5.5 -23.5q-14 -68 -43 -118.5t-82.5 -90.5t-141 -60.5t-208.5 -20.5q-186 0 -285 61.5t-124.5 187t1.5 314.5h-47q-13 0 -20 8.5t-4 22.5z" />
<glyph unicode="&#x2122;" horiz-adv-x="1095" d="M293 1323l4 20q4 15 16 15h353q6 0 10 -5.5t2 -11.5l-4 -18q-3 -16 -17 -16h-151l-92 -469q-13 -69 4.5 -97t70.5 -28h13q6 0 10 -5.5t4 -11.5l-4 -20q-4 -14 -20 -14q-92 0 -121 42.5t-11 133.5l93 469h-146q-7 0 -11.5 5t-2.5 11zM618 680l130 661q4 15 18 15h35l10 -8 l123 -412l285 412q4 8 12 8h37q6 0 9.5 -4.5t2.5 -10.5l-129 -661q-3 -14 -16 -14h-21q-6 0 -9.5 4t-2.5 10l112 580q-252 -365 -256 -371q-8 -12 -16 -12h-35q-10 0 -14 12l-109 371l-112 -580q-4 -14 -19 -14h-22q-6 0 -10 4t-3 10z" />
<glyph unicode="&#xe000;" horiz-adv-x="1003" d="M0 0v1004h1004v-1004h-1004z" />
<glyph unicode="&#xfb01;" horiz-adv-x="1075" d="M201 31l170 872h-133q-12 0 -19.5 9.5t-5.5 23.5l8 37q1 12 13 21.5t24 9.5h133q35 182 128.5 267t283.5 85q12 0 19.5 -9.5t4.5 -21.5l-6 -37q-3 -12 -14 -21.5t-23 -9.5h-28q-107 0 -171 -58.5t-91 -194.5h438q12 0 18.5 -10t1.5 -21l-116 -602q-53 -265 178 -271h30 q12 0 20 -9t5 -21l-6 -37q-3 -13 -14 -23t-23 -10q-193 0 -261 93t-32 278l103 532h-363l-170 -872q-1 -12 -12 -21.5t-23 -9.5h-41q-12 0 -20 9.5t-6 21.5zM893 1192l25 135q3 12 13.5 21.5t22.5 9.5h138q7 0 12.5 -8t7.5 -16l2 -7l-24 -135q-3 -12 -14.5 -21.5t-24.5 -9.5 h-138q-12 0 -17.5 9.5t-2.5 21.5z" />
<glyph unicode="&#xfb02;" horiz-adv-x="1034" d="M201 31l170 872h-133q-12 0 -19.5 9.5t-5.5 23.5l8 37q1 12 13 21.5t24 9.5h133q36 190 128.5 272t283.5 82h162q13 0 19 -9.5t3 -21.5l-184 -956q-54 -271 180 -271h29q12 0 19.5 -9t4.5 -21l-6 -37q-3 -13 -14 -23t-23 -10q-193 0 -261 93t-32 278l172 886h-116 q-108 0 -171.5 -57t-90.5 -196h229q28 -4 25 -33l-9 -37q-1 -12 -13 -21.5t-24 -9.5h-229l-170 -872q-1 -12 -12 -21.5t-23 -9.5h-41q-12 0 -20 9.5t-6 21.5z" />
</font>
</defs>
</svg>
